<svg xmlns="http://www.w3.org/2000/svg" viewBox="0 0 1600 820" font-family="Inter, -apple-system, sans-serif" font-size="12">
  <defs>
    <filter id="glow"><feDropShadow dx="0" dy="0" stdDeviation="2" flood-color="#22d3ee" flood-opacity="0.15"/></filter>
  </defs>
  <rect width="1600" height="820" fill="#0f172a" rx="12"/>
  <text x="800" y="32" fill="#e2e8f0" font-size="18" font-weight="700" text-anchor="middle">Style 2 — Dark Slate</text>
  <text x="800" y="50" fill="#64748b" font-size="11" text-anchor="middle">Navy backgrounds (#0f172a), cyan accent (#22d3ee), slate cards (#1e293b), cool gray text</text>

  <!-- ===== SCREEN 1: REPOS ===== -->
  <rect x="20" y="64" width="490" height="340" rx="8" fill="#0f172a" stroke="#334155"/>
  <text x="265" y="84" fill="#22d3ee" font-size="10" font-weight="600" text-anchor="middle">REPOS</text>
  <rect x="20" y="64" width="90" height="340" rx="8" fill="#1e293b"/>
  <line x1="110" y1="64" x2="110" y2="404" stroke="#334155"/>
  <rect x="28" y="72" width="16" height="16" rx="4" fill="#22d3ee"/>
  <text x="48" y="84" fill="#e2e8f0" font-size="8" font-weight="700">Crabitat</text>
  <rect x="28" y="96" width="74" height="16" rx="3" fill="#0f172a"/>
  <text x="36" y="107" fill="#22d3ee" font-size="8" font-weight="600">Repos</text>
  <rect x="86" y="98" width="14" height="12" rx="6" fill="#22d3ee"/>
  <text x="93" y="107" fill="#0f172a" font-size="7" text-anchor="middle">4</text>
  <text x="36" y="123" fill="#94a3b8" font-size="8">Workflows</text>
  <text x="36" y="137" fill="#94a3b8" font-size="8">Issues</text>
  <text x="36" y="151" fill="#94a3b8" font-size="8">Missions</text>
  <text x="36" y="165" fill="#94a3b8" font-size="8">Agents</text>
  <rect x="110" y="64" width="400" height="24" fill="#1e293b"/>
  <line x1="110" y1="88" x2="510" y2="88" stroke="#334155"/>
  <text x="122" y="81" fill="#e2e8f0" font-size="11" font-weight="700">Repos</text>
  <rect x="122" y="96" width="60" height="18" rx="4" fill="#22d3ee"/>
  <text x="152" y="109" fill="#0f172a" font-size="8" font-weight="600" text-anchor="middle">+ Add Repo</text>
  <!-- Cards -->
  <rect x="122" y="122" width="180" height="72" rx="6" fill="#1e293b" stroke="#334155"/>
  <text x="132" y="138" fill="#e2e8f0" font-size="9" font-weight="600">l1x/crabitat</text>
  <rect x="132" y="146" width="28" height="12" rx="3" fill="#334155"/>
  <text x="146" y="155" fill="#94a3b8" font-size="7" text-anchor="middle">main</text>
  <rect x="164" y="146" width="24" height="12" rx="3" fill="#334155"/>
  <text x="176" y="155" fill="#94a3b8" font-size="7" text-anchor="middle">Rust</text>
  <rect x="132" y="162" width="24" height="12" rx="6" fill="#164e63"/>
  <text x="144" y="171" fill="#22d3ee" font-size="6" text-anchor="middle">rust</text>
  <rect x="160" y="162" width="24" height="12" rx="6" fill="#164e63"/>
  <text x="172" y="171" fill="#22d3ee" font-size="6" text-anchor="middle">mise</text>
  <text x="132" y="188" fill="#94a3b8" font-size="7">12 issues · 3 missions</text>

  <rect x="310" y="122" width="180" height="72" rx="6" fill="#1e293b" stroke="#334155"/>
  <text x="320" y="138" fill="#e2e8f0" font-size="9" font-weight="600">l1x/dotfiles</text>
  <text x="320" y="188" fill="#94a3b8" font-size="7">5 issues · 1 mission</text>

  <rect x="122" y="202" width="180" height="72" rx="6" fill="#1e293b" stroke="#334155"/>
  <text x="132" y="218" fill="#e2e8f0" font-size="9" font-weight="600">l1x/website</text>
  <text x="132" y="268" fill="#94a3b8" font-size="7">3 issues · 2 missions</text>

  <rect x="310" y="202" width="180" height="72" rx="6" fill="#1e293b" stroke="#334155"/>
  <text x="320" y="218" fill="#e2e8f0" font-size="9" font-weight="600">l1x/agent-prompts</text>
  <text x="320" y="268" fill="#94a3b8" font-size="7">3 issues · 0 missions</text>

  <!-- ===== SCREEN 2: REPO DETAIL ===== -->
  <rect x="530" y="64" width="490" height="340" rx="8" fill="#0f172a" stroke="#334155"/>
  <text x="775" y="84" fill="#22d3ee" font-size="10" font-weight="600" text-anchor="middle">REPO DETAIL</text>
  <rect x="530" y="64" width="90" height="340" rx="8" fill="#1e293b"/>
  <line x1="620" y1="64" x2="620" y2="404" stroke="#334155"/>
  <rect x="538" y="72" width="16" height="16" rx="4" fill="#22d3ee"/>
  <rect x="538" y="96" width="74" height="16" rx="3" fill="#0f172a"/>
  <text x="546" y="107" fill="#22d3ee" font-size="8" font-weight="600">Repos</text>
  <rect x="620" y="64" width="400" height="24" fill="#1e293b"/>
  <line x1="620" y1="88" x2="1020" y2="88" stroke="#334155"/>
  <text x="632" y="81" fill="#e2e8f0" font-size="11" font-weight="700">l1x/crabitat</text>
  <text x="632" y="104" fill="#22d3ee" font-size="8">← All repos</text>
  <rect x="632" y="112" width="28" height="12" rx="3" fill="#334155"/>
  <text x="646" y="121" fill="#94a3b8" font-size="7" text-anchor="middle">main</text>
  <text x="632" y="140" fill="#e2e8f0" font-size="8" font-weight="600">Stacks</text>
  <rect x="632" y="146" width="28" height="14" rx="7" fill="#164e63"/>
  <text x="646" y="156" fill="#22d3ee" font-size="7" text-anchor="middle">rust</text>
  <rect x="664" y="146" width="28" height="14" rx="7" fill="#164e63"/>
  <text x="678" y="156" fill="#22d3ee" font-size="7" text-anchor="middle">mise</text>
  <rect x="696" y="146" width="52" height="14" rx="7" fill="#164e63"/>
  <text x="722" y="156" fill="#22d3ee" font-size="7" text-anchor="middle">github-issue</text>
  <!-- Language bar -->
  <rect x="632" y="168" width="360" height="6" rx="3" fill="#334155"/>
  <rect x="632" y="168" width="200" height="6" rx="3" fill="#dea584"/>
  <rect x="832" y="168" width="108" height="6" fill="#3178c6"/>
  <rect x="940" y="168" width="36" height="6" fill="#f1e05a"/>
  <rect x="976" y="168" width="16" height="6" rx="3" fill="#89e051"/>
  <!-- Issues -->
  <rect x="632" y="184" width="376" height="16" rx="4" fill="#1e293b" stroke="#334155"/>
  <text x="640" y="195" fill="#e2e8f0" font-size="8" font-weight="600">Open Issues</text>
  <rect x="700" y="186" width="16" height="12" rx="6" fill="#22d3ee"/>
  <text x="708" y="195" fill="#0f172a" font-size="7" text-anchor="middle">12</text>
  <rect x="632" y="204" width="376" height="32" rx="4" fill="#1e293b" stroke="#334155"/>
  <text x="640" y="216" fill="#94a3b8" font-size="7">#26</text>
  <text x="656" y="216" fill="#e2e8f0" font-size="8" font-weight="500">Split control-plane main.rs into modules</text>
  <rect x="940" y="208" width="58" height="16" rx="4" fill="#22d3ee"/>
  <text x="969" y="219" fill="#0f172a" font-size="7" text-anchor="middle">Create Mission</text>
  <rect x="632" y="240" width="376" height="32" rx="4" fill="#1e293b" stroke="#334155"/>
  <text x="640" y="252" fill="#94a3b8" font-size="7">#28</text>
  <text x="656" y="252" fill="#e2e8f0" font-size="8" font-weight="500">Add error handling to console</text>
  <rect x="956" y="244" width="40" height="16" rx="4" fill="#334155"/>
  <text x="976" y="255" fill="#94a3b8" font-size="7" text-anchor="middle">Queued</text>
  <!-- Pipeline -->
  <text x="632" y="290" fill="#e2e8f0" font-size="8" font-weight="600">Missions</text>
  <rect x="632" y="296" width="376" height="36" rx="4" fill="#1e293b" stroke="#334155"/>
  <rect x="640" y="300" width="40" height="12" rx="3" fill="#422006"/>
  <text x="660" y="309" fill="#fbbf24" font-size="7" text-anchor="middle">running</text>
  <text x="686" y="309" fill="#e2e8f0" font-size="8">Add test coverage...</text>
  <rect x="640" y="316" width="40" height="12" rx="3" fill="#14532d" stroke="#22c55e" stroke-width="0.5"/>
  <text x="660" y="325" fill="#22c55e" font-size="6" text-anchor="middle">plan ✓</text>
  <text x="684" y="325" fill="#334155" font-size="8">→</text>
  <rect x="692" y="316" width="48" height="12" rx="3" fill="#422006" stroke="#fbbf24" stroke-width="0.5"/>
  <text x="716" y="325" fill="#fbbf24" font-size="6" text-anchor="middle">develop ●</text>
  <text x="744" y="325" fill="#334155" font-size="8">→</text>
  <rect x="752" y="316" width="44" height="12" rx="3" fill="#334155" stroke="#475569" stroke-width="0.5"/>
  <text x="774" y="325" fill="#94a3b8" font-size="6" text-anchor="middle">review</text>
  <text x="800" y="325" fill="#334155" font-size="8">→</text>
  <rect x="808" y="316" width="56" height="12" rx="3" fill="#334155" stroke="#475569" stroke-width="0.5" stroke-dasharray="2,1"/>
  <text x="836" y="325" fill="#94a3b8" font-size="6" text-anchor="middle">merge-wait</text>

  <!-- ===== SCREEN 3: ISSUES ===== -->
  <rect x="1040" y="64" width="540" height="340" rx="8" fill="#0f172a" stroke="#334155"/>
  <text x="1310" y="84" fill="#22d3ee" font-size="10" font-weight="600" text-anchor="middle">ISSUES</text>
  <rect x="1040" y="64" width="90" height="340" rx="8" fill="#1e293b"/>
  <line x1="1130" y1="64" x2="1130" y2="404" stroke="#334155"/>
  <rect x="1048" y="72" width="16" height="16" rx="4" fill="#22d3ee"/>
  <rect x="1048" y="128" width="74" height="16" rx="3" fill="#0f172a"/>
  <text x="1056" y="137" fill="#22d3ee" font-size="8" font-weight="600">Issues</text>
  <rect x="1130" y="64" width="450" height="24" fill="#1e293b"/>
  <line x1="1130" y1="88" x2="1580" y2="88" stroke="#334155"/>
  <text x="1142" y="81" fill="#e2e8f0" font-size="11" font-weight="700">Issues</text>
  <text x="1142" y="107" fill="#e2e8f0" font-size="8" font-weight="600">Repository</text>
  <rect x="1142" y="112" width="120" height="18" rx="4" fill="#1e293b" stroke="#334155"/>
  <text x="1150" y="124" fill="#e2e8f0" font-size="8">All repos</text>
  <rect x="1142" y="138" width="426" height="16" rx="4" fill="#1e293b" stroke="#334155"/>
  <text x="1150" y="149" fill="#e2e8f0" font-size="8" font-weight="600">Open Issues</text>
  <rect x="1210" y="140" width="16" height="12" rx="6" fill="#22d3ee"/>
  <text x="1218" y="149" fill="#0f172a" font-size="7" text-anchor="middle">23</text>
  <!-- Cards -->
  <rect x="1142" y="158" width="426" height="44" rx="4" fill="#1e293b" stroke="#334155"/>
  <text x="1150" y="172" fill="#94a3b8" font-size="7">#26</text>
  <text x="1168" y="172" fill="#e2e8f0" font-size="8" font-weight="500">Split control-plane main.rs into modules</text>
  <rect x="1492" y="162" width="66" height="16" rx="4" fill="#22d3ee"/>
  <text x="1525" y="173" fill="#0f172a" font-size="7" text-anchor="middle">Create Mission</text>
  <text x="1150" y="186" fill="#94a3b8" font-size="7">l1x/crabitat</text>
  <rect x="1210" y="178" width="52" height="12" rx="3" fill="#164e63"/>
  <text x="1236" y="187" fill="#22d3ee" font-size="6" text-anchor="middle">enhancement</text>

  <rect x="1142" y="206" width="426" height="44" rx="4" fill="#1e293b" stroke="#334155"/>
  <text x="1150" y="220" fill="#94a3b8" font-size="7">#27</text>
  <text x="1168" y="220" fill="#e2e8f0" font-size="8" font-weight="500">Remove dead crates from workspace</text>
  <rect x="1492" y="210" width="66" height="16" rx="4" fill="#22d3ee"/>
  <text x="1525" y="221" fill="#0f172a" font-size="7" text-anchor="middle">Create Mission</text>

  <rect x="1142" y="254" width="426" height="44" rx="4" fill="#1e293b" stroke="#334155"/>
  <text x="1150" y="268" fill="#94a3b8" font-size="7">#28</text>
  <text x="1168" y="268" fill="#e2e8f0" font-size="8" font-weight="500">Add error handling to console pages</text>
  <rect x="1514" y="258" width="44" height="16" rx="4" fill="#334155"/>
  <text x="1536" y="269" fill="#94a3b8" font-size="7" text-anchor="middle">Queued</text>

  <rect x="1142" y="302" width="426" height="44" rx="4" fill="#1e293b" stroke="#334155"/>
  <text x="1150" y="316" fill="#94a3b8" font-size="7">#30</text>
  <text x="1168" y="316" fill="#e2e8f0" font-size="8" font-weight="500">Add tests for workflow engine</text>
  <rect x="1492" y="306" width="66" height="16" rx="4" fill="#22d3ee"/>
  <text x="1525" y="317" fill="#0f172a" font-size="7" text-anchor="middle">Create Mission</text>

  <!-- ===== SCREEN 4: MISSIONS ===== -->
  <rect x="160" y="424" width="600" height="380" rx="8" fill="#0f172a" stroke="#334155"/>
  <text x="460" y="444" fill="#22d3ee" font-size="10" font-weight="600" text-anchor="middle">MISSIONS</text>
  <rect x="160" y="424" width="90" height="380" rx="8" fill="#1e293b"/>
  <line x1="250" y1="424" x2="250" y2="804" stroke="#334155"/>
  <rect x="168" y="432" width="16" height="16" rx="4" fill="#22d3ee"/>
  <rect x="168" y="460" width="74" height="16" rx="3" fill="#0f172a"/>
  <text x="176" y="471" fill="#22d3ee" font-size="8" font-weight="600">Missions</text>
  <rect x="250" y="424" width="510" height="24" fill="#1e293b"/>
  <line x1="250" y1="448" x2="760" y2="448" stroke="#334155"/>
  <text x="262" y="441" fill="#e2e8f0" font-size="11" font-weight="700">Missions</text>
  <rect x="722" y="430" width="20" height="20" rx="4" fill="#22d3ee"/>
  <text x="732" y="444" fill="#0f172a" font-size="12" text-anchor="middle">+</text>
  <rect x="262" y="456" width="486" height="16" rx="4" fill="#1e293b" stroke="#334155"/>
  <text x="270" y="467" fill="#e2e8f0" font-size="8" font-weight="600">Missions</text>
  <rect x="310" y="458" width="14" height="12" rx="6" fill="#22d3ee"/>
  <text x="317" y="467" fill="#0f172a" font-size="7" text-anchor="middle">6</text>
  <!-- Mission 1 -->
  <rect x="262" y="478" width="486" height="68" rx="4" fill="#1e293b" stroke="#334155"/>
  <rect x="270" y="486" width="40" height="14" rx="3" fill="#422006"/>
  <text x="290" y="496" fill="#fbbf24" font-size="7" text-anchor="middle">running</text>
  <text x="316" y="496" fill="#e2e8f0" font-size="8" font-weight="500">Add test coverage for cascade logic</text>
  <text x="270" y="512" fill="#94a3b8" font-size="7">l1x/crabitat · develop-feature/github-issue+mise+rust · #30</text>
  <rect x="270" y="520" width="48" height="16" rx="3" fill="#14532d" stroke="#22c55e" stroke-width="0.5"/>
  <text x="294" y="531" fill="#22c55e" font-size="7" text-anchor="middle">plan ✓</text>
  <text x="322" y="531" fill="#334155" font-size="8">→</text>
  <rect x="332" y="520" width="56" height="16" rx="3" fill="#422006" stroke="#fbbf24" stroke-width="0.5"/>
  <text x="360" y="531" fill="#fbbf24" font-size="7" text-anchor="middle">develop ●</text>
  <text x="392" y="531" fill="#334155" font-size="8">→</text>
  <rect x="402" y="520" width="48" height="16" rx="3" fill="#334155" stroke="#475569" stroke-width="0.5"/>
  <text x="426" y="531" fill="#94a3b8" font-size="7" text-anchor="middle">review</text>
  <text x="454" y="531" fill="#334155" font-size="8">→</text>
  <rect x="464" y="520" width="64" height="16" rx="3" fill="#334155" stroke="#475569" stroke-width="0.5" stroke-dasharray="2,1"/>
  <text x="496" y="531" fill="#94a3b8" font-size="7" text-anchor="middle">merge-wait</text>
  <!-- Mission 2 -->
  <rect x="262" y="552" width="486" height="56" rx="4" fill="#1e293b" stroke="#334155"/>
  <rect x="270" y="560" width="52" height="14" rx="3" fill="#14532d"/>
  <text x="296" y="570" fill="#22c55e" font-size="7" text-anchor="middle">completed</text>
  <text x="328" y="570" fill="#e2e8f0" font-size="8" font-weight="500">Implement stacks assembly</text>
  <text x="270" y="586" fill="#94a3b8" font-size="7">l1x/crabitat · #22 · PR #25 · 2h ago</text>
  <rect x="270" y="594" width="48" height="12" rx="3" fill="#14532d" stroke="#22c55e" stroke-width="0.5"/>
  <text x="294" y="603" fill="#22c55e" font-size="6" text-anchor="middle">plan ✓</text>
  <text x="322" y="603" fill="#334155" font-size="7">→</text>
  <rect x="332" y="594" width="56" height="12" rx="3" fill="#14532d" stroke="#22c55e" stroke-width="0.5"/>
  <text x="360" y="603" fill="#22c55e" font-size="6" text-anchor="middle">develop ✓</text>
  <text x="392" y="603" fill="#334155" font-size="7">→</text>
  <rect x="402" y="594" width="48" height="12" rx="3" fill="#14532d" stroke="#22c55e" stroke-width="0.5"/>
  <text x="426" y="603" fill="#22c55e" font-size="6" text-anchor="middle">review ✓</text>
  <text x="454" y="603" fill="#334155" font-size="7">→</text>
  <rect x="464" y="594" width="64" height="12" rx="3" fill="#14532d" stroke="#22c55e" stroke-width="0.5"/>
  <text x="496" y="603" fill="#22c55e" font-size="6" text-anchor="middle">merge ✓</text>
  <!-- Mission 3 -->
  <rect x="262" y="614" width="486" height="56" rx="4" fill="#1e293b" stroke="#334155"/>
  <rect x="270" y="622" width="36" height="14" rx="3" fill="#450a0a"/>
  <text x="288" y="632" fill="#f87171" font-size="7" text-anchor="middle">failed</text>
  <text x="312" y="632" fill="#e2e8f0" font-size="8" font-weight="500">Fix auth token refresh</text>
  <text x="270" y="648" fill="#94a3b8" font-size="7">l1x/dotfiles · #14 · 1h ago</text>
  <rect x="270" y="656" width="48" height="12" rx="3" fill="#14532d" stroke="#22c55e" stroke-width="0.5"/>
  <text x="294" y="665" fill="#22c55e" font-size="6" text-anchor="middle">plan ✓</text>
  <text x="322" y="665" fill="#334155" font-size="7">→</text>
  <rect x="332" y="656" width="56" height="12" rx="3" fill="#450a0a" stroke="#f87171" stroke-width="0.5"/>
  <text x="360" y="665" fill="#f87171" font-size="6" text-anchor="middle">develop ✗</text>
  <!-- Mission 4/5 -->
  <rect x="262" y="676" width="486" height="32" rx="4" fill="#1e293b" stroke="#334155"/>
  <rect x="270" y="680" width="40" height="14" rx="3" fill="#334155"/>
  <text x="290" y="690" fill="#94a3b8" font-size="7" text-anchor="middle">queued</text>
  <text x="316" y="690" fill="#e2e8f0" font-size="8">Deduplicate row-mapping · #29 · Queue #2</text>
  <rect x="262" y="714" width="486" height="32" rx="4" fill="#1e293b" stroke="#334155"/>
  <rect x="270" y="718" width="40" height="14" rx="3" fill="#334155"/>
  <text x="290" y="728" fill="#94a3b8" font-size="7" text-anchor="middle">queued</text>
  <text x="316" y="728" fill="#e2e8f0" font-size="8">Clean up dead code · #31 · Queue #3</text>

  <!-- ===== SCREEN 5: WORKFLOWS ===== -->
  <rect x="780" y="424" width="800" height="380" rx="8" fill="#0f172a" stroke="#334155"/>
  <text x="1180" y="444" fill="#22d3ee" font-size="10" font-weight="600" text-anchor="middle">WORKFLOWS</text>
  <rect x="780" y="424" width="90" height="380" rx="8" fill="#1e293b"/>
  <line x1="870" y1="424" x2="870" y2="804" stroke="#334155"/>
  <rect x="788" y="432" width="16" height="16" rx="4" fill="#22d3ee"/>
  <rect x="788" y="456" width="74" height="16" rx="3" fill="#0f172a"/>
  <text x="796" y="467" fill="#22d3ee" font-size="8" font-weight="600">Workflows</text>
  <rect x="870" y="424" width="710" height="24" fill="#1e293b"/>
  <line x1="870" y1="448" x2="1580" y2="448" stroke="#334155"/>
  <text x="882" y="441" fill="#e2e8f0" font-size="11" font-weight="700">Workflows</text>
  <rect x="1542" y="430" width="20" height="20" rx="4" fill="#334155"/>
  <text x="1552" y="444" fill="#94a3b8" font-size="10" text-anchor="middle">⚙</text>
  <rect x="882" y="456" width="686" height="16" rx="4" fill="#1e293b" stroke="#334155"/>
  <text x="890" y="467" fill="#e2e8f0" font-size="8" font-weight="600">Workflows</text>
  <rect x="940" y="458" width="14" height="12" rx="6" fill="#22d3ee"/>
  <text x="947" y="467" fill="#0f172a" font-size="7" text-anchor="middle">8</text>
  <!-- WF 1 -->
  <rect x="882" y="478" width="686" height="56" rx="4" fill="#1e293b" stroke="#334155"/>
  <text x="892" y="494" fill="#e2e8f0" font-size="9" font-weight="600">develop-feature</text>
  <rect x="990" y="484" width="20" height="12" rx="3" fill="#334155"/>
  <text x="1000" y="493" fill="#94a3b8" font-size="7" text-anchor="middle">v1</text>
  <rect x="1014" y="484" width="32" height="12" rx="3" fill="#164e63"/>
  <text x="1030" y="493" fill="#22d3ee" font-size="7" text-anchor="middle">TOML</text>
  <text x="892" y="508" fill="#94a3b8" font-size="7">Plan, develop, review, and merge a feature</text>
  <rect x="892" y="516" width="40" height="12" rx="3" fill="#334155" stroke="#475569" stroke-width="0.5"/>
  <text x="912" y="525" fill="#e2e8f0" font-size="6" text-anchor="middle">plan</text>
  <text x="936" y="525" fill="#334155" font-size="7">→</text>
  <rect x="944" y="516" width="48" height="12" rx="3" fill="#334155" stroke="#475569" stroke-width="0.5"/>
  <text x="968" y="525" fill="#e2e8f0" font-size="6" text-anchor="middle">develop</text>
  <text x="996" y="525" fill="#334155" font-size="7">→</text>
  <rect x="1004" y="516" width="44" height="12" rx="3" fill="#334155" stroke="#475569" stroke-width="0.5"/>
  <text x="1026" y="525" fill="#e2e8f0" font-size="6" text-anchor="middle">review</text>
  <text x="1052" y="525" fill="#334155" font-size="7">→</text>
  <rect x="1060" y="516" width="56" height="12" rx="3" fill="#334155" stroke="#475569" stroke-width="0.5" stroke-dasharray="2,1"/>
  <text x="1088" y="525" fill="#94a3b8" font-size="6" text-anchor="middle">merge-wait</text>
  <!-- WF 2 -->
  <rect x="882" y="540" width="686" height="44" rx="4" fill="#1e293b" stroke="#334155"/>
  <text x="892" y="558" fill="#e2e8f0" font-size="9" font-weight="600">develop-feature/github-issue+mise+rust</text>
  <rect x="1220" y="548" width="56" height="12" rx="3" fill="#14532d"/>
  <text x="1248" y="557" fill="#22c55e" font-size="7" text-anchor="middle">ASSEMBLED</text>
  <text x="892" y="576" fill="#94a3b8" font-size="7">Includes: rust.md, mise.md, github-issue.md</text>
  <!-- Prompt browser -->
  <rect x="882" y="596" width="686" height="16" rx="4" fill="#1e293b" stroke="#334155"/>
  <text x="890" y="607" fill="#e2e8f0" font-size="8" font-weight="600">Prompt Files</text>
  <rect x="956" y="598" width="16" height="12" rx="6" fill="#22d3ee"/>
  <text x="964" y="607" fill="#0f172a" font-size="7" text-anchor="middle">14</text>
  <rect x="882" y="616" width="686" height="180" rx="4" fill="#1e293b" stroke="#334155"/>
  <line x1="1060" y1="616" x2="1060" y2="796" stroke="#334155"/>
  <text x="892" y="634" fill="#64748b" font-size="7" font-weight="600">PROMPTS/STACKS/</text>
  <rect x="892" y="640" width="156" height="16" rx="3" fill="#0f172a"/>
  <text x="904" y="651" fill="#22d3ee" font-size="8">rust.md</text>
  <text x="904" y="667" fill="#e2e8f0" font-size="8">mise.md</text>
  <text x="904" y="683" fill="#e2e8f0" font-size="8">astro.md</text>
  <text x="892" y="700" fill="#64748b" font-size="7" font-weight="600">PROMPTS/PM/</text>
  <text x="904" y="715" fill="#e2e8f0" font-size="8">github-issue.md</text>
  <text x="892" y="732" fill="#64748b" font-size="7" font-weight="600">PROMPTS/STEPS/</text>
  <text x="904" y="747" fill="#e2e8f0" font-size="8">plan.md</text>
  <text x="904" y="763" fill="#e2e8f0" font-size="8">develop.md</text>
  <text x="1072" y="634" fill="#64748b" font-size="7">prompts/stacks/rust.md</text>
  <text x="1072" y="652" fill="#22d3ee" font-size="8" font-family="monospace"># Rust Stack Context</text>
  <text x="1072" y="668" fill="#e2e8f0" font-size="8" font-family="monospace">## Build System</text>
  <text x="1072" y="684" fill="#e2e8f0" font-size="8" font-family="monospace">- cargo build</text>
  <text x="1072" y="700" fill="#e2e8f0" font-size="8" font-family="monospace">- cargo test</text>
  <text x="1072" y="716" fill="#e2e8f0" font-size="8" font-family="monospace">- cargo clippy</text>
  <text x="1072" y="732" fill="#e2e8f0" font-size="8" font-family="monospace">## Conventions</text>
  <text x="1072" y="748" fill="#e2e8f0" font-size="8" font-family="monospace">- Edition 2024</text>
</svg>