<svg xmlns="http://www.w3.org/2000/svg" viewBox="0 0 1600 820" font-family="'JetBrains Mono', 'Fira Code', 'SF Mono', monospace" font-size="11">
  <rect width="1600" height="820" fill="#0a0a0a" rx="12"/>
  <text x="800" y="30" fill="#00ff41" font-size="16" font-weight="700" text-anchor="middle">Style 3 — Terminal / Phosphor</text>
  <text x="800" y="48" fill="#4a7a4a" font-size="10" text-anchor="middle">Black canvas (#0a0a0a), green phosphor (#00ff41), box-drawing borders, monospace everything</text>

  <!-- ===== SCREEN 1: REPOS ===== -->
  <rect x="20" y="64" width="490" height="340" rx="2" fill="#0a0a0a" stroke="#1a3a1a"/>
  <text x="265" y="82" fill="#00ff41" font-size="10" font-weight="700" text-anchor="middle">[ REPOS ]</text>
  <!-- Sidebar -->
  <rect x="20" y="64" width="90" height="340" rx="2" fill="#0d0d0d"/>
  <line x1="110" y1="64" x2="110" y2="404" stroke="#1a3a1a"/>
  <text x="28" y="84" fill="#00ff41" font-size="9" font-weight="700">🦀 CRAB</text>
  <text x="28" y="102" fill="#00ff41" font-size="9">> Repos [4]</text>
  <text x="28" y="116" fill="#4a7a4a" font-size="9">  Workflows</text>
  <text x="28" y="130" fill="#4a7a4a" font-size="9">  Issues</text>
  <text x="28" y="144" fill="#4a7a4a" font-size="9">  Missions</text>
  <text x="28" y="158" fill="#4a7a4a" font-size="9">  Agents</text>
  <!-- Content -->
  <text x="118" y="82" fill="#00ff41" font-size="10">$ crabitat repos --list</text>
  <line x1="118" y1="88" x2="502" y2="88" stroke="#1a3a1a"/>
  <rect x="118" y="96" width="74" height="16" rx="2" fill="#1a3a1a" stroke="#00ff41" stroke-width="0.5"/>
  <text x="155" y="108" fill="#00ff41" font-size="9" text-anchor="middle">[+] ADD</text>
  <!-- Cards as terminal entries -->
  <rect x="118" y="120" width="376" height="52" rx="2" fill="#0d0d0d" stroke="#1a3a1a"/>
  <text x="126" y="136" fill="#00ff41" font-size="9" font-weight="700">l1x/crabitat</text>
  <text x="280" y="136" fill="#4a7a4a" font-size="8">[main] [Rust]</text>
  <text x="126" y="150" fill="#4a7a4a" font-size="8">stacks: rust, mise, github-issue</text>
  <text x="126" y="164" fill="#4a7a4a" font-size="8">issues:12  missions:3</text>

  <rect x="118" y="178" width="376" height="52" rx="2" fill="#0d0d0d" stroke="#1a3a1a"/>
  <text x="126" y="194" fill="#00ff41" font-size="9" font-weight="700">l1x/dotfiles</text>
  <text x="280" y="194" fill="#4a7a4a" font-size="8">[main] [Shell]</text>
  <text x="126" y="208" fill="#4a7a4a" font-size="8">stacks: (none)</text>
  <text x="126" y="222" fill="#4a7a4a" font-size="8">issues:5   missions:1</text>

  <rect x="118" y="236" width="376" height="52" rx="2" fill="#0d0d0d" stroke="#1a3a1a"/>
  <text x="126" y="252" fill="#00ff41" font-size="9" font-weight="700">l1x/website</text>
  <text x="280" y="252" fill="#4a7a4a" font-size="8">[main] [TypeScript]</text>
  <text x="126" y="266" fill="#4a7a4a" font-size="8">stacks: astro</text>
  <text x="126" y="280" fill="#4a7a4a" font-size="8">issues:3   missions:2</text>

  <rect x="118" y="294" width="376" height="52" rx="2" fill="#0d0d0d" stroke="#1a3a1a"/>
  <text x="126" y="310" fill="#00ff41" font-size="9" font-weight="700">l1x/agent-prompts</text>
  <text x="126" y="338" fill="#4a7a4a" font-size="8">issues:3   missions:0</text>

  <!-- ===== SCREEN 2: REPO DETAIL ===== -->
  <rect x="530" y="64" width="490" height="340" rx="2" fill="#0a0a0a" stroke="#1a3a1a"/>
  <text x="775" y="82" fill="#00ff41" font-size="10" font-weight="700" text-anchor="middle">[ REPO DETAIL ]</text>
  <rect x="530" y="64" width="90" height="340" rx="2" fill="#0d0d0d"/>
  <line x1="620" y1="64" x2="620" y2="404" stroke="#1a3a1a"/>
  <text x="538" y="84" fill="#00ff41" font-size="9" font-weight="700">🦀 CRAB</text>
  <text x="538" y="102" fill="#00ff41" font-size="9">> Repos</text>
  <text x="628" y="82" fill="#00ff41" font-size="10">$ show l1x/crabitat</text>
  <line x1="628" y1="88" x2="1012" y2="88" stroke="#1a3a1a"/>
  <text x="628" y="104" fill="#4a7a4a" font-size="8">branch: main    lang: Rust</text>
  <text x="628" y="118" fill="#4a7a4a" font-size="8">path:   /Users/l1x/code/home/projectz/crabitat</text>
  <!-- Stacks -->
  <text x="628" y="136" fill="#00ff41" font-size="9" font-weight="700">STACKS:</text>
  <rect x="690" y="126" width="36" height="14" rx="2" fill="#1a3a1a" stroke="#00ff41" stroke-width="0.5"/>
  <text x="708" y="137" fill="#00ff41" font-size="8" text-anchor="middle">rust</text>
  <rect x="730" y="126" width="36" height="14" rx="2" fill="#1a3a1a" stroke="#00ff41" stroke-width="0.5"/>
  <text x="748" y="137" fill="#00ff41" font-size="8" text-anchor="middle">mise</text>
  <rect x="770" y="126" width="64" height="14" rx="2" fill="#1a3a1a" stroke="#00ff41" stroke-width="0.5"/>
  <text x="802" y="137" fill="#00ff41" font-size="8" text-anchor="middle">github-issue</text>
  <!-- Lang bar as ASCII -->
  <text x="628" y="156" fill="#00ff41" font-size="8">LANG: [████████████████░░░░░░░░░░▒▒▒]</text>
  <text x="628" y="168" fill="#4a7a4a" font-size="8">      Rust 55%  TS 30%  CSS 10%  Sh 5%</text>
  <!-- Issues -->
  <text x="628" y="186" fill="#00ff41" font-size="9" font-weight="700">--- ISSUES (12) ---</text>
  <rect x="628" y="192" width="376" height="28" rx="2" fill="#0d0d0d" stroke="#1a3a1a"/>
  <text x="636" y="206" fill="#4a7a4a" font-size="8">#26</text>
  <text x="656" y="206" fill="#00ff41" font-size="8">Split control-plane main.rs</text>
  <text x="936" y="206" fill="#00ff41" font-size="8">[LAUNCH]</text>
  <text x="636" y="218" fill="#4a7a4a" font-size="7">enhancement  control-plane</text>

  <rect x="628" y="224" width="376" height="28" rx="2" fill="#0d0d0d" stroke="#1a3a1a"/>
  <text x="636" y="238" fill="#4a7a4a" font-size="8">#28</text>
  <text x="656" y="238" fill="#00ff41" font-size="8">Add error handling</text>
  <text x="936" y="238" fill="#4a7a4a" font-size="8">[QUEUED]</text>
  <!-- Missions -->
  <text x="628" y="274" fill="#00ff41" font-size="9" font-weight="700">--- MISSIONS ---</text>
  <rect x="628" y="280" width="376" height="36" rx="2" fill="#0d0d0d" stroke="#1a3a1a"/>
  <text x="636" y="294" fill="#ffff00" font-size="8">[RUNNING]</text>
  <text x="706" y="294" fill="#00ff41" font-size="8">Add test coverage...</text>
  <text x="636" y="310" fill="#4a7a4a" font-size="8">[plan ✓]→[develop ●]→[review -]→[merge -]</text>

  <rect x="628" y="320" width="376" height="36" rx="2" fill="#0d0d0d" stroke="#1a3a1a"/>
  <text x="636" y="334" fill="#00ff41" font-size="8">[  DONE ]</text>
  <text x="706" y="334" fill="#00ff41" font-size="8">Implement stacks assembly</text>
  <text x="636" y="350" fill="#4a7a4a" font-size="8">[plan ✓]→[develop ✓]→[review ✓]→[merge ✓]</text>

  <!-- ===== SCREEN 3: ISSUES ===== -->
  <rect x="1040" y="64" width="540" height="340" rx="2" fill="#0a0a0a" stroke="#1a3a1a"/>
  <text x="1310" y="82" fill="#00ff41" font-size="10" font-weight="700" text-anchor="middle">[ ISSUES ]</text>
  <rect x="1040" y="64" width="90" height="340" rx="2" fill="#0d0d0d"/>
  <line x1="1130" y1="64" x2="1130" y2="404" stroke="#1a3a1a"/>
  <text x="1048" y="84" fill="#00ff41" font-size="9" font-weight="700">🦀 CRAB</text>
  <text x="1048" y="130" fill="#00ff41" font-size="9">> Issues</text>
  <text x="1138" y="82" fill="#00ff41" font-size="10">$ issues --all</text>
  <line x1="1138" y1="88" x2="1572" y2="88" stroke="#1a3a1a"/>
  <text x="1138" y="106" fill="#00ff41" font-size="9">FILTER:</text>
  <rect x="1188" y="96" width="100" height="16" rx="2" fill="#0d0d0d" stroke="#1a3a1a"/>
  <text x="1198" y="108" fill="#00ff41" font-size="8">All repos    ▾</text>
  <text x="1138" y="130" fill="#00ff41" font-size="9" font-weight="700">--- OPEN ISSUES (23) ---</text>

  <rect x="1138" y="138" width="434" height="40" rx="2" fill="#0d0d0d" stroke="#1a3a1a"/>
  <text x="1146" y="152" fill="#4a7a4a" font-size="8">#26</text>
  <text x="1168" y="152" fill="#00ff41" font-size="8">Split control-plane main.rs into modules</text>
  <text x="1504" y="152" fill="#00ff41" font-size="8">[LAUNCH]</text>
  <text x="1146" y="170" fill="#4a7a4a" font-size="7">l1x/crabitat  [enhancement] [control-plane]</text>

  <rect x="1138" y="182" width="434" height="40" rx="2" fill="#0d0d0d" stroke="#1a3a1a"/>
  <text x="1146" y="196" fill="#4a7a4a" font-size="8">#27</text>
  <text x="1168" y="196" fill="#00ff41" font-size="8">Remove dead crates from workspace</text>
  <text x="1504" y="196" fill="#00ff41" font-size="8">[LAUNCH]</text>
  <text x="1146" y="214" fill="#4a7a4a" font-size="7">l1x/crabitat  [enhancement] [core]</text>

  <rect x="1138" y="226" width="434" height="40" rx="2" fill="#0d0d0d" stroke="#1a3a1a"/>
  <text x="1146" y="240" fill="#4a7a4a" font-size="8">#28</text>
  <text x="1168" y="240" fill="#00ff41" font-size="8">Add error handling to console pages</text>
  <text x="1504" y="240" fill="#4a7a4a" font-size="8">[QUEUED]</text>
  <text x="1146" y="258" fill="#4a7a4a" font-size="7">l1x/crabitat  [bug] [console]</text>

  <rect x="1138" y="270" width="434" height="40" rx="2" fill="#0d0d0d" stroke="#1a3a1a"/>
  <text x="1146" y="284" fill="#4a7a4a" font-size="8">#30</text>
  <text x="1168" y="284" fill="#00ff41" font-size="8">Add tests for workflow engine</text>
  <text x="1504" y="284" fill="#00ff41" font-size="8">[LAUNCH]</text>
  <text x="1146" y="302" fill="#4a7a4a" font-size="7">l1x/crabitat  [enhancement] [control-plane]</text>

  <!-- ===== SCREEN 4: MISSIONS ===== -->
  <rect x="160" y="424" width="600" height="380" rx="2" fill="#0a0a0a" stroke="#1a3a1a"/>
  <text x="460" y="442" fill="#00ff41" font-size="10" font-weight="700" text-anchor="middle">[ MISSIONS ]</text>
  <rect x="160" y="424" width="90" height="380" rx="2" fill="#0d0d0d"/>
  <line x1="250" y1="424" x2="250" y2="804" stroke="#1a3a1a"/>
  <text x="168" y="444" fill="#00ff41" font-size="9" font-weight="700">🦀 CRAB</text>
  <text x="168" y="470" fill="#00ff41" font-size="9">> Missions</text>
  <text x="258" y="442" fill="#00ff41" font-size="10">$ missions --status</text>
  <rect x="722" y="428" width="20" height="18" rx="2" fill="#1a3a1a" stroke="#00ff41" stroke-width="0.5"/>
  <text x="732" y="441" fill="#00ff41" font-size="10" text-anchor="middle">+</text>
  <line x1="258" y1="448" x2="752" y2="448" stroke="#1a3a1a"/>
  <text x="258" y="464" fill="#00ff41" font-size="9" font-weight="700">--- MISSIONS (6) ---</text>
  <!-- Mission 1 -->
  <rect x="258" y="472" width="492" height="56" rx="2" fill="#0d0d0d" stroke="#1a3a1a"/>
  <text x="266" y="488" fill="#ffff00" font-size="8">[RUNNING]</text>
  <text x="330" y="488" fill="#00ff41" font-size="8">Add test coverage for cascade logic</text>
  <text x="266" y="502" fill="#4a7a4a" font-size="7">l1x/crabitat  develop-feature/github-issue+mise+rust  #30  15m</text>
  <text x="266" y="520" fill="#4a7a4a" font-size="8">[</text>
  <text x="272" y="520" fill="#00ff41" font-size="8">plan ✓</text>
  <text x="312" y="520" fill="#4a7a4a" font-size="8">]→[</text>
  <text x="330" y="520" fill="#ffff00" font-size="8">develop ●</text>
  <text x="384" y="520" fill="#4a7a4a" font-size="8">]→[</text>
  <text x="402" y="520" fill="#4a7a4a" font-size="8">review -</text>
  <text x="452" y="520" fill="#4a7a4a" font-size="8">]→[</text>
  <text x="470" y="520" fill="#4a7a4a" font-size="8">merge -</text>
  <text x="516" y="520" fill="#4a7a4a" font-size="8">]</text>
  <!-- Mission 2 -->
  <rect x="258" y="534" width="492" height="56" rx="2" fill="#0d0d0d" stroke="#1a3a1a"/>
  <text x="266" y="550" fill="#00ff41" font-size="8">[  DONE ]</text>
  <text x="330" y="550" fill="#00ff41" font-size="8">Implement stacks assembly</text>
  <text x="266" y="564" fill="#4a7a4a" font-size="7">l1x/crabitat  #22  PR #25  2h ago</text>
  <text x="266" y="582" fill="#00ff41" font-size="8">[plan ✓]→[develop ✓]→[review ✓]→[merge ✓]</text>
  <!-- Mission 3 -->
  <rect x="258" y="596" width="492" height="48" rx="2" fill="#0d0d0d" stroke="#1a3a1a"/>
  <text x="266" y="612" fill="#ff4444" font-size="8">[FAILED ]</text>
  <text x="330" y="612" fill="#ff4444" font-size="8">Fix auth token refresh</text>
  <text x="266" y="626" fill="#4a7a4a" font-size="7">l1x/dotfiles  #14  1h ago</text>
  <text x="266" y="638" fill="#4a7a4a" font-size="8">[</text>
  <text x="272" y="638" fill="#00ff41" font-size="8">plan ✓</text>
  <text x="312" y="638" fill="#4a7a4a" font-size="8">]→[</text>
  <text x="330" y="638" fill="#ff4444" font-size="8">develop ✗</text>
  <text x="384" y="638" fill="#4a7a4a" font-size="8">]</text>
  <!-- Mission 4/5 queued -->
  <rect x="258" y="650" width="492" height="28" rx="2" fill="#0d0d0d" stroke="#1a3a1a"/>
  <text x="266" y="668" fill="#4a7a4a" font-size="8">[QUEUED ] Deduplicate row-mapping  #29  Queue #2</text>
  <rect x="258" y="684" width="492" height="28" rx="2" fill="#0d0d0d" stroke="#1a3a1a"/>
  <text x="266" y="702" fill="#4a7a4a" font-size="8">[QUEUED ] Clean up dead code      #31  Queue #3</text>

  <!-- ===== SCREEN 5: WORKFLOWS ===== -->
  <rect x="780" y="424" width="800" height="380" rx="2" fill="#0a0a0a" stroke="#1a3a1a"/>
  <text x="1180" y="442" fill="#00ff41" font-size="10" font-weight="700" text-anchor="middle">[ WORKFLOWS ]</text>
  <rect x="780" y="424" width="90" height="380" rx="2" fill="#0d0d0d"/>
  <line x1="870" y1="424" x2="870" y2="804" stroke="#1a3a1a"/>
  <text x="788" y="444" fill="#00ff41" font-size="9" font-weight="700">🦀 CRAB</text>
  <text x="788" y="470" fill="#00ff41" font-size="9">> Workflows</text>
  <text x="878" y="442" fill="#00ff41" font-size="10">$ workflows --list</text>
  <rect x="1542" y="428" width="26" height="18" rx="2" fill="#1a3a1a" stroke="#00ff41" stroke-width="0.5"/>
  <text x="1555" y="441" fill="#00ff41" font-size="8" text-anchor="middle">CFG</text>
  <line x1="878" y1="448" x2="1572" y2="448" stroke="#1a3a1a"/>
  <text x="878" y="464" fill="#00ff41" font-size="9" font-weight="700">--- WORKFLOWS (8) ---</text>
  <!-- WF 1 -->
  <rect x="878" y="472" width="694" height="48" rx="2" fill="#0d0d0d" stroke="#1a3a1a"/>
  <text x="886" y="488" fill="#00ff41" font-size="9" font-weight="700">develop-feature</text>
  <text x="1010" y="488" fill="#4a7a4a" font-size="8">v1 [TOML] a3f8c2d</text>
  <text x="886" y="502" fill="#4a7a4a" font-size="8">Plan, develop, review, and merge a feature</text>
  <text x="886" y="514" fill="#4a7a4a" font-size="8">[plan]→[develop]→[review]→[merge-wait?]</text>
  <!-- WF 2 -->
  <rect x="878" y="526" width="694" height="36" rx="2" fill="#0d0d0d" stroke="#1a3a1a"/>
  <text x="886" y="542" fill="#00ff41" font-size="9" font-weight="700">develop-feature/github-issue+mise+rust</text>
  <text x="1230" y="542" fill="#00ff41" font-size="8">[ASSEMBLED]</text>
  <text x="886" y="556" fill="#4a7a4a" font-size="8">includes: rust.md, mise.md, github-issue.md</text>
  <!-- Prompt browser -->
  <text x="878" y="582" fill="#00ff41" font-size="9" font-weight="700">--- PROMPT FILES (14) ---</text>
  <rect x="878" y="590" width="694" height="200" rx="2" fill="#0d0d0d" stroke="#1a3a1a"/>
  <line x1="1060" y1="590" x2="1060" y2="790" stroke="#1a3a1a"/>
  <!-- File tree -->
  <text x="886" y="608" fill="#4a7a4a" font-size="8">prompts/stacks/</text>
  <text x="886" y="622" fill="#00ff41" font-size="8">> rust.md</text>
  <text x="886" y="636" fill="#4a7a4a" font-size="8">  mise.md</text>
  <text x="886" y="650" fill="#4a7a4a" font-size="8">  astro.md</text>
  <text x="886" y="668" fill="#4a7a4a" font-size="8">prompts/pm/</text>
  <text x="886" y="682" fill="#4a7a4a" font-size="8">  github-issue.md</text>
  <text x="886" y="700" fill="#4a7a4a" font-size="8">prompts/steps/</text>
  <text x="886" y="714" fill="#4a7a4a" font-size="8">  plan.md</text>
  <text x="886" y="728" fill="#4a7a4a" font-size="8">  develop.md</text>
  <text x="886" y="742" fill="#4a7a4a" font-size="8">  review.md</text>
  <!-- Preview -->
  <text x="1068" y="608" fill="#4a7a4a" font-size="7">--- prompts/stacks/rust.md ---</text>
  <text x="1068" y="624" fill="#00ff41" font-size="8"># Rust Stack Context</text>
  <text x="1068" y="640" fill="#00ff41" font-size="8">## Build System</text>
  <text x="1068" y="656" fill="#4a7a4a" font-size="8">- cargo build</text>
  <text x="1068" y="672" fill="#4a7a4a" font-size="8">- cargo test</text>
  <text x="1068" y="688" fill="#4a7a4a" font-size="8">- cargo clippy</text>
  <text x="1068" y="704" fill="#00ff41" font-size="8">## Conventions</text>
  <text x="1068" y="720" fill="#4a7a4a" font-size="8">- Edition 2024</text>
  <text x="1068" y="736" fill="#4a7a4a" font-size="8">- anyhow for errors</text>
  <text x="1068" y="752" fill="#4a7a4a" font-size="8">- tokio async runtime</text>
</svg>