<svg xmlns="http://www.w3.org/2000/svg" viewBox="0 0 1600 820" font-family="'Georgia', 'Charter', serif" font-size="12">
  <defs>
    <filter id="e1"><feDropShadow dx="0" dy="2" stdDeviation="3" flood-opacity="0.08"/></filter>
  </defs>
  <rect width="1600" height="820" fill="#faf6f1" rx="12"/>
  <text x="800" y="32" fill="#5c4033" font-size="18" font-weight="700" text-anchor="middle">Style 4 — Warm Earth</text>
  <text x="800" y="50" fill="#a0896e" font-size="11" text-anchor="middle">Cream canvas (#faf6f1), terracotta accent (#c4654a), olive greens (#6b7c3e), warm browns, organic rounded shapes</text>

  <!-- ===== SCREEN 1: REPOS ===== -->
  <rect x="20" y="64" width="490" height="340" rx="12" fill="#f5efe8" stroke="#ddd0c0"/>
  <text x="265" y="84" fill="#c4654a" font-size="10" font-weight="700" text-anchor="middle" font-family="Inter, sans-serif">REPOS</text>
  <!-- Sidebar -->
  <rect x="20" y="64" width="90" height="340" rx="12" fill="#f0e8dd"/>
  <line x1="110" y1="72" x2="110" y2="396" stroke="#ddd0c0"/>
  <rect x="28" y="72" width="16" height="16" rx="8" fill="#c4654a"/>
  <text x="48" y="84" fill="#5c4033" font-size="8" font-weight="700" font-family="Inter, sans-serif">Crabitat</text>
  <rect x="28" y="96" width="74" height="16" rx="8" fill="#fce8e2"/>
  <text x="36" y="107" fill="#c4654a" font-size="8" font-weight="600" font-family="Inter, sans-serif">Repos</text>
  <rect x="86" y="98" width="14" height="12" rx="6" fill="#c4654a"/>
  <text x="93" y="107" fill="#fff" font-size="7" text-anchor="middle" font-family="Inter, sans-serif">4</text>
  <text x="36" y="123" fill="#a0896e" font-size="8" font-family="Inter, sans-serif">Workflows</text>
  <text x="36" y="137" fill="#a0896e" font-size="8" font-family="Inter, sans-serif">Issues</text>
  <text x="36" y="151" fill="#a0896e" font-size="8" font-family="Inter, sans-serif">Missions</text>
  <text x="36" y="165" fill="#a0896e" font-size="8" font-family="Inter, sans-serif">Agents</text>
  <!-- Content -->
  <rect x="110" y="64" width="400" height="24" rx="12" fill="#f0e8dd"/>
  <line x1="114" y1="88" x2="506" y2="88" stroke="#ddd0c0"/>
  <text x="122" y="81" fill="#5c4033" font-size="11" font-weight="700">Repos</text>
  <rect x="122" y="96" width="60" height="18" rx="9" fill="#c4654a"/>
  <text x="152" y="109" fill="#fff" font-size="8" font-weight="600" text-anchor="middle" font-family="Inter, sans-serif">+ Add Repo</text>
  <!-- Cards -->
  <rect x="122" y="122" width="180" height="72" rx="10" fill="#fff" filter="url(#e1)"/>
  <text x="132" y="138" fill="#5c4033" font-size="9" font-weight="700">l1x/crabitat</text>
  <rect x="132" y="146" width="28" height="12" rx="6" fill="#f5efe8"/>
  <text x="146" y="155" fill="#a0896e" font-size="7" text-anchor="middle" font-family="Inter, sans-serif">main</text>
  <rect x="164" y="146" width="24" height="12" rx="6" fill="#f5efe8"/>
  <text x="176" y="155" fill="#a0896e" font-size="7" text-anchor="middle" font-family="Inter, sans-serif">Rust</text>
  <rect x="132" y="162" width="24" height="12" rx="6" fill="#fce8e2"/>
  <text x="144" y="171" fill="#c4654a" font-size="6" text-anchor="middle" font-family="Inter, sans-serif">rust</text>
  <rect x="160" y="162" width="24" height="12" rx="6" fill="#fce8e2"/>
  <text x="172" y="171" fill="#c4654a" font-size="6" text-anchor="middle" font-family="Inter, sans-serif">mise</text>
  <text x="132" y="188" fill="#a0896e" font-size="7" font-family="Inter, sans-serif">12 issues · 3 missions</text>

  <rect x="310" y="122" width="180" height="72" rx="10" fill="#fff" filter="url(#e1)"/>
  <text x="320" y="138" fill="#5c4033" font-size="9" font-weight="700">l1x/dotfiles</text>
  <text x="320" y="188" fill="#a0896e" font-size="7" font-family="Inter, sans-serif">5 issues · 1 mission</text>

  <rect x="122" y="202" width="180" height="72" rx="10" fill="#fff" filter="url(#e1)"/>
  <text x="132" y="218" fill="#5c4033" font-size="9" font-weight="700">l1x/website</text>
  <rect x="132" y="242" width="28" height="12" rx="6" fill="#fce8e2"/>
  <text x="146" y="251" fill="#c4654a" font-size="6" text-anchor="middle" font-family="Inter, sans-serif">astro</text>
  <text x="132" y="268" fill="#a0896e" font-size="7" font-family="Inter, sans-serif">3 issues · 2 missions</text>

  <rect x="310" y="202" width="180" height="72" rx="10" fill="#fff" filter="url(#e1)"/>
  <text x="320" y="218" fill="#5c4033" font-size="9" font-weight="700">l1x/agent-prompts</text>
  <text x="320" y="268" fill="#a0896e" font-size="7" font-family="Inter, sans-serif">3 issues · 0 missions</text>

  <!-- ===== SCREEN 2: REPO DETAIL ===== -->
  <rect x="530" y="64" width="490" height="340" rx="12" fill="#f5efe8" stroke="#ddd0c0"/>
  <text x="775" y="84" fill="#c4654a" font-size="10" font-weight="700" text-anchor="middle" font-family="Inter, sans-serif">REPO DETAIL</text>
  <rect x="530" y="64" width="90" height="340" rx="12" fill="#f0e8dd"/>
  <line x1="620" y1="72" x2="620" y2="396" stroke="#ddd0c0"/>
  <rect x="538" y="72" width="16" height="16" rx="8" fill="#c4654a"/>
  <rect x="538" y="96" width="74" height="16" rx="8" fill="#fce8e2"/>
  <text x="546" y="107" fill="#c4654a" font-size="8" font-weight="600" font-family="Inter, sans-serif">Repos</text>
  <rect x="620" y="64" width="400" height="24" rx="12" fill="#f0e8dd"/>
  <line x1="624" y1="88" x2="1016" y2="88" stroke="#ddd0c0"/>
  <text x="632" y="81" fill="#5c4033" font-size="11" font-weight="700">l1x/crabitat</text>
  <text x="632" y="104" fill="#c4654a" font-size="8" font-family="Inter, sans-serif">← All repos</text>
  <rect x="632" y="112" width="28" height="12" rx="6" fill="#f5efe8"/>
  <text x="646" y="121" fill="#a0896e" font-size="7" text-anchor="middle" font-family="Inter, sans-serif">main</text>
  <text x="632" y="140" fill="#5c4033" font-size="8" font-weight="700">Stacks</text>
  <text x="662" y="140" fill="#c4654a" font-size="7" font-family="Inter, sans-serif">Edit</text>
  <rect x="632" y="146" width="28" height="14" rx="7" fill="#fce8e2"/>
  <text x="646" y="156" fill="#c4654a" font-size="7" text-anchor="middle" font-family="Inter, sans-serif">rust</text>
  <rect x="664" y="146" width="28" height="14" rx="7" fill="#fce8e2"/>
  <text x="678" y="156" fill="#c4654a" font-size="7" text-anchor="middle" font-family="Inter, sans-serif">mise</text>
  <rect x="696" y="146" width="52" height="14" rx="7" fill="#fce8e2"/>
  <text x="722" y="156" fill="#c4654a" font-size="7" text-anchor="middle" font-family="Inter, sans-serif">github-issue</text>
  <!-- Language bar -->
  <rect x="632" y="168" width="360" height="8" rx="4" fill="#e8ddd0"/>
  <rect x="632" y="168" width="200" height="8" rx="4" fill="#dea584"/>
  <rect x="832" y="168" width="108" height="8" fill="#3178c6"/>
  <rect x="940" y="168" width="36" height="8" fill="#f1e05a"/>
  <rect x="976" y="168" width="16" height="8" rx="4" fill="#6b7c3e"/>
  <!-- Issues -->
  <rect x="632" y="186" width="376" height="18" rx="9" fill="#fff" filter="url(#e1)"/>
  <text x="642" y="199" fill="#5c4033" font-size="8" font-weight="700">Open Issues</text>
  <rect x="712" y="189" width="16" height="12" rx="6" fill="#c4654a"/>
  <text x="720" y="198" fill="#fff" font-size="7" text-anchor="middle" font-family="Inter, sans-serif">12</text>
  <rect x="632" y="210" width="376" height="30" rx="8" fill="#fff" filter="url(#e1)"/>
  <text x="640" y="224" fill="#a0896e" font-size="7" font-family="Inter, sans-serif">#26</text>
  <text x="656" y="224" fill="#5c4033" font-size="8" font-weight="600">Split control-plane main.rs</text>
  <rect x="942" y="214" width="58" height="16" rx="8" fill="#c4654a"/>
  <text x="971" y="225" fill="#fff" font-size="7" text-anchor="middle" font-family="Inter, sans-serif">Create Mission</text>
  <rect x="632" y="244" width="376" height="30" rx="8" fill="#fff" filter="url(#e1)"/>
  <text x="640" y="258" fill="#a0896e" font-size="7" font-family="Inter, sans-serif">#28</text>
  <text x="656" y="258" fill="#5c4033" font-size="8" font-weight="600">Add error handling</text>
  <rect x="960" y="248" width="40" height="16" rx="8" fill="#f5efe8"/>
  <text x="980" y="259" fill="#a0896e" font-size="7" text-anchor="middle" font-family="Inter, sans-serif">Queued</text>
  <!-- Pipeline -->
  <text x="632" y="296" fill="#5c4033" font-size="8" font-weight="700">Missions</text>
  <rect x="632" y="302" width="376" height="36" rx="8" fill="#fff" filter="url(#e1)"/>
  <rect x="640" y="306" width="40" height="12" rx="6" fill="#fef3c7"/>
  <text x="660" y="315" fill="#d97706" font-size="7" text-anchor="middle" font-family="Inter, sans-serif">running</text>
  <text x="686" y="315" fill="#5c4033" font-size="8">Add test coverage...</text>
  <rect x="640" y="322" width="40" height="12" rx="6" fill="#e8f5e0" stroke="#6b7c3e" stroke-width="0.5"/>
  <text x="660" y="331" fill="#6b7c3e" font-size="6" text-anchor="middle" font-family="Inter, sans-serif">plan ✓</text>
  <text x="684" y="331" fill="#ddd0c0" font-size="8">→</text>
  <rect x="692" y="322" width="48" height="12" rx="6" fill="#fef3c7" stroke="#d97706" stroke-width="0.5"/>
  <text x="716" y="331" fill="#d97706" font-size="6" text-anchor="middle" font-family="Inter, sans-serif">develop ●</text>
  <text x="744" y="331" fill="#ddd0c0" font-size="8">→</text>
  <rect x="752" y="322" width="44" height="12" rx="6" fill="#f5efe8" stroke="#ddd0c0" stroke-width="0.5"/>
  <text x="774" y="331" fill="#a0896e" font-size="6" text-anchor="middle" font-family="Inter, sans-serif">review</text>
  <text x="800" y="331" fill="#ddd0c0" font-size="8">→</text>
  <rect x="808" y="322" width="56" height="12" rx="6" fill="#f5efe8" stroke="#ddd0c0" stroke-width="0.5" stroke-dasharray="2,1"/>
  <text x="836" y="331" fill="#a0896e" font-size="6" text-anchor="middle" font-family="Inter, sans-serif">merge-wait</text>

  <!-- ===== SCREEN 3: ISSUES ===== -->
  <rect x="1040" y="64" width="540" height="340" rx="12" fill="#f5efe8" stroke="#ddd0c0"/>
  <text x="1310" y="84" fill="#c4654a" font-size="10" font-weight="700" text-anchor="middle" font-family="Inter, sans-serif">ISSUES</text>
  <rect x="1040" y="64" width="90" height="340" rx="12" fill="#f0e8dd"/>
  <line x1="1130" y1="72" x2="1130" y2="396" stroke="#ddd0c0"/>
  <rect x="1048" y="72" width="16" height="16" rx="8" fill="#c4654a"/>
  <rect x="1048" y="128" width="74" height="16" rx="8" fill="#fce8e2"/>
  <text x="1056" y="139" fill="#c4654a" font-size="8" font-weight="600" font-family="Inter, sans-serif">Issues</text>
  <rect x="1130" y="64" width="450" height="24" rx="12" fill="#f0e8dd"/>
  <line x1="1134" y1="88" x2="1576" y2="88" stroke="#ddd0c0"/>
  <text x="1142" y="81" fill="#5c4033" font-size="11" font-weight="700">Issues</text>
  <text x="1142" y="107" fill="#5c4033" font-size="8" font-weight="700">Repository</text>
  <rect x="1142" y="112" width="120" height="18" rx="9" fill="#fff" stroke="#ddd0c0"/>
  <text x="1150" y="124" fill="#5c4033" font-size="8" font-family="Inter, sans-serif">All repos</text>
  <rect x="1142" y="138" width="426" height="18" rx="9" fill="#fff" filter="url(#e1)"/>
  <text x="1152" y="151" fill="#5c4033" font-size="8" font-weight="700">Open Issues</text>
  <rect x="1222" y="141" width="16" height="12" rx="6" fill="#c4654a"/>
  <text x="1230" y="150" fill="#fff" font-size="7" text-anchor="middle" font-family="Inter, sans-serif">23</text>

  <rect x="1142" y="162" width="426" height="40" rx="8" fill="#fff" filter="url(#e1)"/>
  <text x="1150" y="176" fill="#a0896e" font-size="7" font-family="Inter, sans-serif">#26</text>
  <text x="1168" y="176" fill="#5c4033" font-size="8" font-weight="600">Split control-plane main.rs into modules</text>
  <rect x="1496" y="166" width="62" height="16" rx="8" fill="#c4654a"/>
  <text x="1527" y="177" fill="#fff" font-size="7" text-anchor="middle" font-family="Inter, sans-serif">Create Mission</text>
  <text x="1150" y="194" fill="#a0896e" font-size="7" font-family="Inter, sans-serif">l1x/crabitat</text>
  <rect x="1210" y="184" width="52" height="12" rx="6" fill="#fce8e2"/>
  <text x="1236" y="193" fill="#c4654a" font-size="6" text-anchor="middle" font-family="Inter, sans-serif">enhancement</text>

  <rect x="1142" y="208" width="426" height="40" rx="8" fill="#fff" filter="url(#e1)"/>
  <text x="1150" y="222" fill="#a0896e" font-size="7" font-family="Inter, sans-serif">#27</text>
  <text x="1168" y="222" fill="#5c4033" font-size="8" font-weight="600">Remove dead crates from workspace</text>
  <rect x="1496" y="212" width="62" height="16" rx="8" fill="#c4654a"/>
  <text x="1527" y="223" fill="#fff" font-size="7" text-anchor="middle" font-family="Inter, sans-serif">Create Mission</text>

  <rect x="1142" y="254" width="426" height="40" rx="8" fill="#fff" filter="url(#e1)"/>
  <text x="1150" y="268" fill="#a0896e" font-size="7" font-family="Inter, sans-serif">#28</text>
  <text x="1168" y="268" fill="#5c4033" font-size="8" font-weight="600">Add error handling to console pages</text>
  <rect x="1516" y="258" width="42" height="16" rx="8" fill="#f5efe8"/>
  <text x="1537" y="269" fill="#a0896e" font-size="7" text-anchor="middle" font-family="Inter, sans-serif">Queued</text>

  <rect x="1142" y="300" width="426" height="40" rx="8" fill="#fff" filter="url(#e1)"/>
  <text x="1150" y="314" fill="#a0896e" font-size="7" font-family="Inter, sans-serif">#30</text>
  <text x="1168" y="314" fill="#5c4033" font-size="8" font-weight="600">Add tests for workflow engine</text>
  <rect x="1496" y="304" width="62" height="16" rx="8" fill="#c4654a"/>
  <text x="1527" y="315" fill="#fff" font-size="7" text-anchor="middle" font-family="Inter, sans-serif">Create Mission</text>

  <!-- ===== SCREEN 4: MISSIONS ===== -->
  <rect x="160" y="424" width="600" height="380" rx="12" fill="#f5efe8" stroke="#ddd0c0"/>
  <text x="460" y="444" fill="#c4654a" font-size="10" font-weight="700" text-anchor="middle" font-family="Inter, sans-serif">MISSIONS</text>
  <rect x="160" y="424" width="90" height="380" rx="12" fill="#f0e8dd"/>
  <line x1="250" y1="432" x2="250" y2="796" stroke="#ddd0c0"/>
  <rect x="168" y="432" width="16" height="16" rx="8" fill="#c4654a"/>
  <rect x="168" y="460" width="74" height="16" rx="8" fill="#fce8e2"/>
  <text x="176" y="471" fill="#c4654a" font-size="8" font-weight="600" font-family="Inter, sans-serif">Missions</text>
  <rect x="250" y="424" width="510" height="24" rx="12" fill="#f0e8dd"/>
  <line x1="254" y1="448" x2="756" y2="448" stroke="#ddd0c0"/>
  <text x="262" y="441" fill="#5c4033" font-size="11" font-weight="700">Missions</text>
  <rect x="722" y="430" width="20" height="20" rx="10" fill="#c4654a"/>
  <text x="732" y="444" fill="#fff" font-size="12" text-anchor="middle" font-family="Inter, sans-serif">+</text>
  <rect x="262" y="456" width="486" height="18" rx="9" fill="#fff" filter="url(#e1)"/>
  <text x="272" y="469" fill="#5c4033" font-size="8" font-weight="700">Missions</text>
  <rect x="318" y="459" width="14" height="12" rx="6" fill="#c4654a"/>
  <text x="325" y="468" fill="#fff" font-size="7" text-anchor="middle" font-family="Inter, sans-serif">6</text>
  <!-- Mission 1 -->
  <rect x="262" y="480" width="486" height="64" rx="8" fill="#fff" filter="url(#e1)"/>
  <rect x="270" y="488" width="40" height="14" rx="7" fill="#fef3c7"/>
  <text x="290" y="498" fill="#d97706" font-size="7" text-anchor="middle" font-family="Inter, sans-serif">running</text>
  <text x="316" y="498" fill="#5c4033" font-size="8" font-weight="600">Add test coverage for cascade logic</text>
  <text x="270" y="514" fill="#a0896e" font-size="7" font-family="Inter, sans-serif">l1x/crabitat · develop-feature/github-issue+mise+rust · #30</text>
  <rect x="270" y="522" width="48" height="14" rx="7" fill="#e8f5e0" stroke="#6b7c3e" stroke-width="0.5"/>
  <text x="294" y="532" fill="#6b7c3e" font-size="6" text-anchor="middle" font-family="Inter, sans-serif">plan ✓</text>
  <text x="322" y="532" fill="#ddd0c0" font-size="8">→</text>
  <rect x="332" y="522" width="56" height="14" rx="7" fill="#fef3c7" stroke="#d97706" stroke-width="0.5"/>
  <text x="360" y="532" fill="#d97706" font-size="6" text-anchor="middle" font-family="Inter, sans-serif">develop ●</text>
  <text x="392" y="532" fill="#ddd0c0" font-size="8">→</text>
  <rect x="402" y="522" width="48" height="14" rx="7" fill="#f5efe8" stroke="#ddd0c0" stroke-width="0.5"/>
  <text x="426" y="532" fill="#a0896e" font-size="6" text-anchor="middle" font-family="Inter, sans-serif">review</text>
  <text x="454" y="532" fill="#ddd0c0" font-size="8">→</text>
  <rect x="464" y="522" width="64" height="14" rx="7" fill="#f5efe8" stroke="#ddd0c0" stroke-width="0.5" stroke-dasharray="2,1"/>
  <text x="496" y="532" fill="#a0896e" font-size="6" text-anchor="middle" font-family="Inter, sans-serif">merge-wait</text>
  <!-- Mission 2 -->
  <rect x="262" y="550" width="486" height="56" rx="8" fill="#fff" filter="url(#e1)"/>
  <rect x="270" y="558" width="52" height="14" rx="7" fill="#e8f5e0"/>
  <text x="296" y="568" fill="#6b7c3e" font-size="7" text-anchor="middle" font-family="Inter, sans-serif">completed</text>
  <text x="328" y="568" fill="#5c4033" font-size="8" font-weight="600">Implement stacks assembly</text>
  <text x="270" y="584" fill="#a0896e" font-size="7" font-family="Inter, sans-serif">l1x/crabitat · #22 · PR #25 · 2h ago</text>
  <rect x="270" y="592" width="48" height="12" rx="6" fill="#e8f5e0" stroke="#6b7c3e" stroke-width="0.5"/>
  <text x="294" y="601" fill="#6b7c3e" font-size="6" text-anchor="middle" font-family="Inter, sans-serif">plan ✓</text>
  <text x="322" y="601" fill="#ddd0c0" font-size="7">→</text>
  <rect x="332" y="592" width="56" height="12" rx="6" fill="#e8f5e0" stroke="#6b7c3e" stroke-width="0.5"/>
  <text x="360" y="601" fill="#6b7c3e" font-size="6" text-anchor="middle" font-family="Inter, sans-serif">develop ✓</text>
  <text x="392" y="601" fill="#ddd0c0" font-size="7">→</text>
  <rect x="402" y="592" width="48" height="12" rx="6" fill="#e8f5e0" stroke="#6b7c3e" stroke-width="0.5"/>
  <text x="426" y="601" fill="#6b7c3e" font-size="6" text-anchor="middle" font-family="Inter, sans-serif">review ✓</text>
  <text x="454" y="601" fill="#ddd0c0" font-size="7">→</text>
  <rect x="464" y="592" width="64" height="12" rx="6" fill="#e8f5e0" stroke="#6b7c3e" stroke-width="0.5"/>
  <text x="496" y="601" fill="#6b7c3e" font-size="6" text-anchor="middle" font-family="Inter, sans-serif">merge ✓</text>
  <!-- Mission 3 -->
  <rect x="262" y="612" width="486" height="44" rx="8" fill="#fff" filter="url(#e1)"/>
  <rect x="270" y="620" width="36" height="14" rx="7" fill="#fde2e2"/>
  <text x="288" y="630" fill="#c4654a" font-size="7" text-anchor="middle" font-family="Inter, sans-serif">failed</text>
  <text x="312" y="630" fill="#5c4033" font-size="8" font-weight="600">Fix auth token refresh</text>
  <text x="270" y="650" fill="#a0896e" font-size="7" font-family="Inter, sans-serif">l1x/dotfiles · #14 · 1h ago</text>
  <!-- Mission 4/5 -->
  <rect x="262" y="662" width="486" height="32" rx="8" fill="#fff" filter="url(#e1)"/>
  <rect x="270" y="668" width="40" height="14" rx="7" fill="#f5efe8"/>
  <text x="290" y="678" fill="#a0896e" font-size="7" text-anchor="middle" font-family="Inter, sans-serif">queued</text>
  <text x="316" y="678" fill="#5c4033" font-size="8">Deduplicate row-mapping · #29 · Queue #2</text>
  <rect x="262" y="700" width="486" height="32" rx="8" fill="#fff" filter="url(#e1)"/>
  <rect x="270" y="706" width="40" height="14" rx="7" fill="#f5efe8"/>
  <text x="290" y="716" fill="#a0896e" font-size="7" text-anchor="middle" font-family="Inter, sans-serif">queued</text>
  <text x="316" y="716" fill="#5c4033" font-size="8">Clean up dead code · #31 · Queue #3</text>

  <!-- ===== SCREEN 5: WORKFLOWS ===== -->
  <rect x="780" y="424" width="800" height="380" rx="12" fill="#f5efe8" stroke="#ddd0c0"/>
  <text x="1180" y="444" fill="#c4654a" font-size="10" font-weight="700" text-anchor="middle" font-family="Inter, sans-serif">WORKFLOWS</text>
  <rect x="780" y="424" width="90" height="380" rx="12" fill="#f0e8dd"/>
  <line x1="870" y1="432" x2="870" y2="796" stroke="#ddd0c0"/>
  <rect x="788" y="432" width="16" height="16" rx="8" fill="#c4654a"/>
  <rect x="788" y="456" width="74" height="16" rx="8" fill="#fce8e2"/>
  <text x="796" y="467" fill="#c4654a" font-size="8" font-weight="600" font-family="Inter, sans-serif">Workflows</text>
  <rect x="870" y="424" width="710" height="24" rx="12" fill="#f0e8dd"/>
  <line x1="874" y1="448" x2="1576" y2="448" stroke="#ddd0c0"/>
  <text x="882" y="441" fill="#5c4033" font-size="11" font-weight="700">Workflows</text>
  <rect x="1542" y="430" width="24" height="20" rx="10" fill="#f5efe8" stroke="#ddd0c0"/>
  <text x="1554" y="444" fill="#a0896e" font-size="10" text-anchor="middle">⚙</text>
  <rect x="882" y="456" width="686" height="18" rx="9" fill="#fff" filter="url(#e1)"/>
  <text x="892" y="469" fill="#5c4033" font-size="8" font-weight="700">Workflows</text>
  <rect x="946" y="459" width="14" height="12" rx="6" fill="#c4654a"/>
  <text x="953" y="468" fill="#fff" font-size="7" text-anchor="middle" font-family="Inter, sans-serif">8</text>
  <!-- WF 1 -->
  <rect x="882" y="480" width="686" height="52" rx="8" fill="#fff" filter="url(#e1)"/>
  <text x="892" y="496" fill="#5c4033" font-size="9" font-weight="700">develop-feature</text>
  <rect x="994" y="486" width="20" height="12" rx="6" fill="#f5efe8"/>
  <text x="1004" y="495" fill="#a0896e" font-size="7" text-anchor="middle" font-family="Inter, sans-serif">v1</text>
  <rect x="1018" y="486" width="32" height="12" rx="6" fill="#fce8e2"/>
  <text x="1034" y="495" fill="#c4654a" font-size="7" text-anchor="middle" font-family="Inter, sans-serif">TOML</text>
  <text x="892" y="510" fill="#a0896e" font-size="7">Plan, develop, review, and merge a feature</text>
  <rect x="892" y="518" width="40" height="12" rx="6" fill="#f5efe8" stroke="#ddd0c0" stroke-width="0.5"/>
  <text x="912" y="527" fill="#5c4033" font-size="6" text-anchor="middle" font-family="Inter, sans-serif">plan</text>
  <text x="936" y="527" fill="#ddd0c0" font-size="7">→</text>
  <rect x="944" y="518" width="48" height="12" rx="6" fill="#f5efe8" stroke="#ddd0c0" stroke-width="0.5"/>
  <text x="968" y="527" fill="#5c4033" font-size="6" text-anchor="middle" font-family="Inter, sans-serif">develop</text>
  <text x="996" y="527" fill="#ddd0c0" font-size="7">→</text>
  <rect x="1004" y="518" width="44" height="12" rx="6" fill="#f5efe8" stroke="#ddd0c0" stroke-width="0.5"/>
  <text x="1026" y="527" fill="#5c4033" font-size="6" text-anchor="middle" font-family="Inter, sans-serif">review</text>
  <text x="1052" y="527" fill="#ddd0c0" font-size="7">→</text>
  <rect x="1060" y="518" width="56" height="12" rx="6" fill="#f5efe8" stroke="#ddd0c0" stroke-width="0.5" stroke-dasharray="2,1"/>
  <text x="1088" y="527" fill="#a0896e" font-size="6" text-anchor="middle" font-family="Inter, sans-serif">merge-wait</text>
  <!-- WF 2 -->
  <rect x="882" y="538" width="686" height="36" rx="8" fill="#fff" filter="url(#e1)"/>
  <text x="892" y="558" fill="#5c4033" font-size="9" font-weight="700">develop-feature/github-issue+mise+rust</text>
  <rect x="1220" y="550" width="56" height="12" rx="6" fill="#e8f5e0"/>
  <text x="1248" y="559" fill="#6b7c3e" font-size="7" text-anchor="middle" font-family="Inter, sans-serif">ASSEMBLED</text>
  <!-- Prompt browser -->
  <rect x="882" y="586" width="686" height="18" rx="9" fill="#fff" filter="url(#e1)"/>
  <text x="892" y="599" fill="#5c4033" font-size="8" font-weight="700">Prompt Files</text>
  <rect x="960" y="589" width="16" height="12" rx="6" fill="#c4654a"/>
  <text x="968" y="598" fill="#fff" font-size="7" text-anchor="middle" font-family="Inter, sans-serif">14</text>
  <rect x="882" y="610" width="686" height="186" rx="8" fill="#fff" filter="url(#e1)"/>
  <line x1="1060" y1="610" x2="1060" y2="796" stroke="#ddd0c0"/>
  <text x="892" y="630" fill="#a0896e" font-size="7" font-weight="600" font-family="Inter, sans-serif">PROMPTS/STACKS/</text>
  <rect x="892" y="636" width="156" height="16" rx="8" fill="#fce8e2"/>
  <text x="904" y="647" fill="#c4654a" font-size="8" font-family="Inter, sans-serif">rust.md</text>
  <text x="904" y="663" fill="#5c4033" font-size="8" font-family="Inter, sans-serif">mise.md</text>
  <text x="904" y="679" fill="#5c4033" font-size="8" font-family="Inter, sans-serif">astro.md</text>
  <text x="892" y="696" fill="#a0896e" font-size="7" font-weight="600" font-family="Inter, sans-serif">PROMPTS/PM/</text>
  <text x="904" y="711" fill="#5c4033" font-size="8" font-family="Inter, sans-serif">github-issue.md</text>
  <text x="892" y="728" fill="#a0896e" font-size="7" font-weight="600" font-family="Inter, sans-serif">PROMPTS/STEPS/</text>
  <text x="904" y="743" fill="#5c4033" font-size="8" font-family="Inter, sans-serif">plan.md</text>
  <text x="904" y="759" fill="#5c4033" font-size="8" font-family="Inter, sans-serif">develop.md</text>
  <text x="1072" y="630" fill="#a0896e" font-size="7" font-family="Inter, sans-serif">prompts/stacks/rust.md</text>
  <text x="1072" y="648" fill="#5c4033" font-size="8" font-family="monospace"># Rust Stack Context</text>
  <text x="1072" y="664" fill="#5c4033" font-size="8" font-family="monospace">## Build System</text>
  <text x="1072" y="680" fill="#a0896e" font-size="8" font-family="monospace">- cargo build</text>
  <text x="1072" y="696" fill="#a0896e" font-size="8" font-family="monospace">- cargo test</text>
  <text x="1072" y="712" fill="#a0896e" font-size="8" font-family="monospace">- cargo clippy</text>
  <text x="1072" y="728" fill="#5c4033" font-size="8" font-family="monospace">## Conventions</text>
  <text x="1072" y="744" fill="#a0896e" font-size="8" font-family="monospace">- Edition 2024</text>
</svg>