<svg xmlns="http://www.w3.org/2000/svg" viewBox="0 0 1600 820" font-family="Inter, -apple-system, sans-serif" font-size="12">
  <defs>
    <filter id="s1"><feDropShadow dx="0" dy="1" stdDeviation="2" flood-opacity="0.06"/></filter>
  </defs>
  <rect width="1600" height="820" fill="#f0f1f5" rx="12"/>
  <text x="800" y="32" fill="#1a1d26" font-size="18" font-weight="700" text-anchor="middle">Style 1 — Clean Light</text>
  <text x="800" y="50" fill="#6b7280" font-size="11" text-anchor="middle">White panels, soft shadows, indigo accent (#5b6abf), light gray canvas (#f5f6fa)</text>

  <!-- ===== SCREEN 1: REPOS (x=20 y=64) ===== -->
  <rect x="20" y="64" width="490" height="340" rx="8" fill="#f5f6fa" stroke="#e2e5ed"/>
  <text x="265" y="84" fill="#5b6abf" font-size="10" font-weight="600" text-anchor="middle">REPOS</text>
  <!-- Sidebar -->
  <rect x="20" y="64" width="90" height="340" rx="8" fill="#ffffff"/>
  <line x1="110" y1="64" x2="110" y2="404" stroke="#e2e5ed"/>
  <rect x="28" y="72" width="16" height="16" rx="4" fill="#5b6abf"/>
  <text x="48" y="84" fill="#1a1d26" font-size="8" font-weight="700">Crabitat</text>
  <rect x="28" y="96" width="74" height="16" rx="3" fill="#eef0ff"/>
  <text x="36" y="107" fill="#5b6abf" font-size="8" font-weight="600">Repos</text>
  <rect x="86" y="98" width="14" height="12" rx="6" fill="#5b6abf"/>
  <text x="93" y="107" fill="#fff" font-size="7" text-anchor="middle">4</text>
  <text x="36" y="123" fill="#6b7280" font-size="8">Workflows</text>
  <text x="36" y="137" fill="#6b7280" font-size="8">Issues</text>
  <text x="36" y="151" fill="#6b7280" font-size="8">Missions</text>
  <text x="36" y="165" fill="#6b7280" font-size="8">Agents</text>
  <!-- Content -->
  <rect x="110" y="64" width="400" height="24" fill="#ffffff"/>
  <line x1="110" y1="88" x2="510" y2="88" stroke="#e2e5ed"/>
  <text x="122" y="81" fill="#1a1d26" font-size="11" font-weight="700">Repos</text>
  <rect x="122" y="96" width="60" height="18" rx="4" fill="#5b6abf"/>
  <text x="152" y="109" fill="#fff" font-size="8" font-weight="600" text-anchor="middle">+ Add Repo</text>
  <!-- Cards -->
  <rect x="122" y="122" width="180" height="72" rx="6" fill="#ffffff" filter="url(#s1)"/>
  <text x="132" y="138" fill="#1a1d26" font-size="9" font-weight="600">l1x/crabitat</text>
  <rect x="132" y="146" width="28" height="12" rx="3" fill="#f3f4f6"/>
  <text x="146" y="155" fill="#6b7280" font-size="7" text-anchor="middle">main</text>
  <rect x="164" y="146" width="24" height="12" rx="3" fill="#f3f4f6"/>
  <text x="176" y="155" fill="#6b7280" font-size="7" text-anchor="middle">Rust</text>
  <rect x="132" y="162" width="24" height="12" rx="6" fill="#eef0ff"/>
  <text x="144" y="171" fill="#5b6abf" font-size="6" text-anchor="middle">rust</text>
  <rect x="160" y="162" width="24" height="12" rx="6" fill="#eef0ff"/>
  <text x="172" y="171" fill="#5b6abf" font-size="6" text-anchor="middle">mise</text>
  <text x="132" y="188" fill="#6b7280" font-size="7">12 issues · 3 missions</text>

  <rect x="310" y="122" width="180" height="72" rx="6" fill="#ffffff" filter="url(#s1)"/>
  <text x="320" y="138" fill="#1a1d26" font-size="9" font-weight="600">l1x/dotfiles</text>
  <rect x="320" y="146" width="28" height="12" rx="3" fill="#f3f4f6"/>
  <text x="334" y="155" fill="#6b7280" font-size="7" text-anchor="middle">main</text>
  <text x="320" y="188" fill="#6b7280" font-size="7">5 issues · 1 mission</text>

  <rect x="122" y="202" width="180" height="72" rx="6" fill="#ffffff" filter="url(#s1)"/>
  <text x="132" y="218" fill="#1a1d26" font-size="9" font-weight="600">l1x/website</text>
  <rect x="132" y="226" width="28" height="12" rx="3" fill="#f3f4f6"/>
  <text x="146" y="235" fill="#6b7280" font-size="7" text-anchor="middle">main</text>
  <rect x="132" y="242" width="28" height="12" rx="6" fill="#eef0ff"/>
  <text x="146" y="251" fill="#5b6abf" font-size="6" text-anchor="middle">astro</text>
  <text x="132" y="268" fill="#6b7280" font-size="7">3 issues · 2 missions</text>

  <rect x="310" y="202" width="180" height="72" rx="6" fill="#ffffff" filter="url(#s1)"/>
  <text x="320" y="218" fill="#1a1d26" font-size="9" font-weight="600">l1x/agent-prompts</text>
  <text x="320" y="268" fill="#6b7280" font-size="7">3 issues · 0 missions</text>

  <!-- ===== SCREEN 2: REPO DETAIL (x=530 y=64) ===== -->
  <rect x="530" y="64" width="490" height="340" rx="8" fill="#f5f6fa" stroke="#e2e5ed"/>
  <text x="775" y="84" fill="#5b6abf" font-size="10" font-weight="600" text-anchor="middle">REPO DETAIL</text>
  <!-- Sidebar mini -->
  <rect x="530" y="64" width="90" height="340" rx="8" fill="#ffffff"/>
  <line x1="620" y1="64" x2="620" y2="404" stroke="#e2e5ed"/>
  <rect x="538" y="72" width="16" height="16" rx="4" fill="#5b6abf"/>
  <rect x="538" y="96" width="74" height="16" rx="3" fill="#eef0ff"/>
  <text x="546" y="107" fill="#5b6abf" font-size="8" font-weight="600">Repos</text>
  <!-- Content -->
  <rect x="620" y="64" width="400" height="24" fill="#ffffff"/>
  <line x1="620" y1="88" x2="1020" y2="88" stroke="#e2e5ed"/>
  <text x="632" y="81" fill="#1a1d26" font-size="11" font-weight="700">l1x/crabitat</text>
  <text x="632" y="104" fill="#5b6abf" font-size="8">← All repos</text>
  <!-- Meta -->
  <rect x="632" y="112" width="28" height="12" rx="3" fill="#f3f4f6"/>
  <text x="646" y="121" fill="#6b7280" font-size="7" text-anchor="middle">main</text>
  <rect x="664" y="112" width="24" height="12" rx="3" fill="#f3f4f6"/>
  <text x="676" y="121" fill="#6b7280" font-size="7" text-anchor="middle">Rust</text>
  <!-- Stacks -->
  <text x="632" y="140" fill="#1a1d26" font-size="8" font-weight="600">Stacks</text>
  <text x="662" y="140" fill="#5b6abf" font-size="7">Edit</text>
  <rect x="632" y="146" width="28" height="14" rx="7" fill="#eef0ff"/>
  <text x="646" y="156" fill="#5b6abf" font-size="7" text-anchor="middle">rust</text>
  <rect x="664" y="146" width="28" height="14" rx="7" fill="#eef0ff"/>
  <text x="678" y="156" fill="#5b6abf" font-size="7" text-anchor="middle">mise</text>
  <rect x="696" y="146" width="52" height="14" rx="7" fill="#eef0ff"/>
  <text x="722" y="156" fill="#5b6abf" font-size="7" text-anchor="middle">github-issue</text>
  <!-- Language bar -->
  <rect x="632" y="168" width="360" height="6" rx="3" fill="#f3f4f6"/>
  <rect x="632" y="168" width="200" height="6" rx="3" fill="#dea584"/>
  <rect x="832" y="168" width="108" height="6" fill="#3178c6"/>
  <rect x="940" y="168" width="36" height="6" fill="#f1e05a"/>
  <rect x="976" y="168" width="16" height="6" rx="3" fill="#89e051"/>
  <!-- Issues section -->
  <rect x="632" y="184" width="376" height="16" rx="4" fill="#ffffff" filter="url(#s1)"/>
  <text x="640" y="195" fill="#1a1d26" font-size="8" font-weight="600">Open Issues</text>
  <rect x="700" y="186" width="16" height="12" rx="6" fill="#5b6abf"/>
  <text x="708" y="195" fill="#fff" font-size="7" text-anchor="middle">12</text>
  <!-- Issue rows -->
  <rect x="632" y="204" width="376" height="32" rx="4" fill="#ffffff" filter="url(#s1)"/>
  <text x="640" y="216" fill="#6b7280" font-size="7">#26</text>
  <text x="656" y="216" fill="#1a1d26" font-size="8" font-weight="500">Split control-plane main.rs into modules</text>
  <rect x="940" y="208" width="58" height="16" rx="4" fill="#5b6abf"/>
  <text x="969" y="219" fill="#fff" font-size="7" text-anchor="middle">Create Mission</text>
  <text x="640" y="230" fill="#6b7280" font-size="7">enhancement · control-plane</text>

  <rect x="632" y="240" width="376" height="32" rx="4" fill="#ffffff" filter="url(#s1)"/>
  <text x="640" y="252" fill="#6b7280" font-size="7">#28</text>
  <text x="656" y="252" fill="#1a1d26" font-size="8" font-weight="500">Add error handling to console pages</text>
  <rect x="956" y="244" width="40" height="16" rx="4" fill="#f3f4f6"/>
  <text x="976" y="255" fill="#6b7280" font-size="7" text-anchor="middle">Queued</text>
  <!-- Mission pipeline -->
  <text x="632" y="290" fill="#1a1d26" font-size="8" font-weight="600">Missions</text>
  <rect x="632" y="296" width="376" height="36" rx="4" fill="#ffffff" filter="url(#s1)"/>
  <rect x="640" y="300" width="40" height="12" rx="3" fill="#fef3c7"/>
  <text x="660" y="309" fill="#d97706" font-size="7" text-anchor="middle">running</text>
  <text x="686" y="309" fill="#1a1d26" font-size="8">Add test coverage for cascade...</text>
  <!-- Mini pipeline -->
  <rect x="640" y="316" width="40" height="12" rx="3" fill="#dcfce7" stroke="#16a34a" stroke-width="0.5"/>
  <text x="660" y="325" fill="#1a1d26" font-size="6" text-anchor="middle">plan</text>
  <text x="684" y="325" fill="#e2e5ed" font-size="8">→</text>
  <rect x="692" y="316" width="48" height="12" rx="3" fill="#fef3c7" stroke="#d97706" stroke-width="0.5"/>
  <text x="716" y="325" fill="#1a1d26" font-size="6" text-anchor="middle">develop</text>
  <text x="744" y="325" fill="#e2e5ed" font-size="8">→</text>
  <rect x="752" y="316" width="44" height="12" rx="3" fill="#f3f4f6" stroke="#e2e5ed" stroke-width="0.5"/>
  <text x="774" y="325" fill="#6b7280" font-size="6" text-anchor="middle">review</text>
  <text x="800" y="325" fill="#e2e5ed" font-size="8">→</text>
  <rect x="808" y="316" width="56" height="12" rx="3" fill="#f3f4f6" stroke="#e2e5ed" stroke-width="0.5" stroke-dasharray="2,1"/>
  <text x="836" y="325" fill="#6b7280" font-size="6" text-anchor="middle">merge-wait</text>

  <!-- ===== SCREEN 3: ISSUES (x=1040 y=64) ===== -->
  <rect x="1040" y="64" width="540" height="340" rx="8" fill="#f5f6fa" stroke="#e2e5ed"/>
  <text x="1310" y="84" fill="#5b6abf" font-size="10" font-weight="600" text-anchor="middle">ISSUES</text>
  <rect x="1040" y="64" width="90" height="340" rx="8" fill="#ffffff"/>
  <line x1="1130" y1="64" x2="1130" y2="404" stroke="#e2e5ed"/>
  <rect x="1048" y="72" width="16" height="16" rx="4" fill="#5b6abf"/>
  <text x="1056" y="137" fill="#5b6abf" font-size="8" font-weight="600">Issues</text>
  <rect x="1048" y="128" width="74" height="16" rx="3" fill="#eef0ff"/>
  <rect x="1130" y="64" width="450" height="24" fill="#ffffff"/>
  <line x1="1130" y1="88" x2="1580" y2="88" stroke="#e2e5ed"/>
  <text x="1142" y="81" fill="#1a1d26" font-size="11" font-weight="700">Issues</text>
  <!-- Repo filter -->
  <text x="1142" y="107" fill="#1a1d26" font-size="8" font-weight="600">Repository</text>
  <rect x="1142" y="112" width="120" height="18" rx="4" fill="#fff" stroke="#e2e5ed"/>
  <text x="1150" y="124" fill="#1a1d26" font-size="8">All repos</text>
  <text x="1252" y="124" fill="#6b7280" font-size="8">▾</text>
  <!-- Section header -->
  <rect x="1142" y="138" width="426" height="16" rx="4" fill="#ffffff" filter="url(#s1)"/>
  <text x="1150" y="149" fill="#1a1d26" font-size="8" font-weight="600">Open Issues</text>
  <rect x="1210" y="140" width="16" height="12" rx="6" fill="#5b6abf"/>
  <text x="1218" y="149" fill="#fff" font-size="7" text-anchor="middle">23</text>
  <!-- Issue cards -->
  <rect x="1142" y="158" width="426" height="44" rx="4" fill="#ffffff" filter="url(#s1)"/>
  <text x="1150" y="172" fill="#6b7280" font-size="7">#26</text>
  <text x="1168" y="172" fill="#1a1d26" font-size="8" font-weight="500">Split control-plane main.rs into modules</text>
  <rect x="1492" y="162" width="66" height="16" rx="4" fill="#5b6abf"/>
  <text x="1525" y="173" fill="#fff" font-size="7" text-anchor="middle">Create Mission</text>
  <text x="1150" y="186" fill="#6b7280" font-size="7">l1x/crabitat</text>
  <rect x="1210" y="178" width="52" height="12" rx="3" fill="#eef0ff"/>
  <text x="1236" y="187" fill="#5b6abf" font-size="6" text-anchor="middle">enhancement</text>
  <rect x="1268" y="178" width="52" height="12" rx="3" fill="#dcfce7"/>
  <text x="1294" y="187" fill="#16a34a" font-size="6" text-anchor="middle">control-plane</text>

  <rect x="1142" y="206" width="426" height="44" rx="4" fill="#ffffff" filter="url(#s1)"/>
  <text x="1150" y="220" fill="#6b7280" font-size="7">#27</text>
  <text x="1168" y="220" fill="#1a1d26" font-size="8" font-weight="500">Remove dead crates from workspace</text>
  <rect x="1492" y="210" width="66" height="16" rx="4" fill="#5b6abf"/>
  <text x="1525" y="221" fill="#fff" font-size="7" text-anchor="middle">Create Mission</text>
  <text x="1150" y="234" fill="#6b7280" font-size="7">l1x/crabitat</text>
  <rect x="1210" y="226" width="52" height="12" rx="3" fill="#eef0ff"/>
  <text x="1236" y="235" fill="#5b6abf" font-size="6" text-anchor="middle">enhancement</text>

  <rect x="1142" y="254" width="426" height="44" rx="4" fill="#ffffff" filter="url(#s1)"/>
  <text x="1150" y="268" fill="#6b7280" font-size="7">#28</text>
  <text x="1168" y="268" fill="#1a1d26" font-size="8" font-weight="500">Add error handling to console pages</text>
  <rect x="1514" y="258" width="44" height="16" rx="4" fill="#f3f4f6"/>
  <text x="1536" y="269" fill="#6b7280" font-size="7" text-anchor="middle">Queued</text>
  <text x="1150" y="282" fill="#6b7280" font-size="7">l1x/crabitat</text>
  <rect x="1210" y="274" width="28" height="12" rx="3" fill="#fee2e2"/>
  <text x="1224" y="283" fill="#dc2626" font-size="6" text-anchor="middle">bug</text>

  <rect x="1142" y="302" width="426" height="44" rx="4" fill="#ffffff" filter="url(#s1)"/>
  <text x="1150" y="316" fill="#6b7280" font-size="7">#30</text>
  <text x="1168" y="316" fill="#1a1d26" font-size="8" font-weight="500">Add tests for workflow engine</text>
  <rect x="1492" y="306" width="66" height="16" rx="4" fill="#5b6abf"/>
  <text x="1525" y="317" fill="#fff" font-size="7" text-anchor="middle">Create Mission</text>
  <text x="1150" y="330" fill="#6b7280" font-size="7">l1x/crabitat</text>

  <!-- ===== SCREEN 4: MISSIONS (x=160 y=424) ===== -->
  <rect x="160" y="424" width="600" height="380" rx="8" fill="#f5f6fa" stroke="#e2e5ed"/>
  <text x="460" y="444" fill="#5b6abf" font-size="10" font-weight="600" text-anchor="middle">MISSIONS</text>
  <rect x="160" y="424" width="90" height="380" rx="8" fill="#ffffff"/>
  <line x1="250" y1="424" x2="250" y2="804" stroke="#e2e5ed"/>
  <rect x="168" y="432" width="16" height="16" rx="4" fill="#5b6abf"/>
  <rect x="168" y="460" width="74" height="16" rx="3" fill="#eef0ff"/>
  <text x="176" y="471" fill="#5b6abf" font-size="8" font-weight="600">Missions</text>
  <rect x="250" y="424" width="510" height="24" fill="#ffffff"/>
  <line x1="250" y1="448" x2="760" y2="448" stroke="#e2e5ed"/>
  <text x="262" y="441" fill="#1a1d26" font-size="11" font-weight="700">Missions</text>
  <rect x="722" y="430" width="20" height="20" rx="4" fill="#5b6abf"/>
  <text x="732" y="444" fill="#fff" font-size="12" text-anchor="middle">+</text>
  <!-- Section -->
  <rect x="262" y="456" width="486" height="16" rx="4" fill="#ffffff" filter="url(#s1)"/>
  <text x="270" y="467" fill="#1a1d26" font-size="8" font-weight="600">Missions</text>
  <rect x="310" y="458" width="14" height="12" rx="6" fill="#5b6abf"/>
  <text x="317" y="467" fill="#fff" font-size="7" text-anchor="middle">6</text>
  <!-- Mission 1: running -->
  <rect x="262" y="478" width="486" height="68" rx="4" fill="#ffffff" filter="url(#s1)"/>
  <rect x="270" y="486" width="40" height="14" rx="3" fill="#fef3c7"/>
  <text x="290" y="496" fill="#d97706" font-size="7" text-anchor="middle">running</text>
  <text x="316" y="496" fill="#1a1d26" font-size="8" font-weight="500">Add test coverage for cascade logic</text>
  <text x="270" y="512" fill="#6b7280" font-size="7">l1x/crabitat · develop-feature/github-issue+mise+rust · #30 · 15m ago</text>
  <!-- Pipeline -->
  <rect x="270" y="520" width="48" height="16" rx="3" fill="#dcfce7" stroke="#16a34a" stroke-width="0.5"/>
  <text x="294" y="531" fill="#1a1d26" font-size="7" text-anchor="middle">plan ✓</text>
  <text x="322" y="531" fill="#e2e5ed" font-size="8">→</text>
  <rect x="332" y="520" width="56" height="16" rx="3" fill="#fef3c7" stroke="#d97706" stroke-width="0.5"/>
  <text x="360" y="531" fill="#d97706" font-size="7" text-anchor="middle">develop ●</text>
  <text x="392" y="531" fill="#e2e5ed" font-size="8">→</text>
  <rect x="402" y="520" width="48" height="16" rx="3" fill="#f3f4f6" stroke="#e2e5ed" stroke-width="0.5"/>
  <text x="426" y="531" fill="#6b7280" font-size="7" text-anchor="middle">review</text>
  <text x="454" y="531" fill="#e2e5ed" font-size="8">→</text>
  <rect x="464" y="520" width="64" height="16" rx="3" fill="#f3f4f6" stroke="#e2e5ed" stroke-width="0.5" stroke-dasharray="2,1"/>
  <text x="496" y="531" fill="#6b7280" font-size="7" text-anchor="middle">merge-wait</text>
  <!-- Mission 2: completed -->
  <rect x="262" y="552" width="486" height="68" rx="4" fill="#ffffff" filter="url(#s1)"/>
  <rect x="270" y="560" width="52" height="14" rx="3" fill="#dcfce7"/>
  <text x="296" y="570" fill="#16a34a" font-size="7" text-anchor="middle">completed</text>
  <text x="328" y="570" fill="#1a1d26" font-size="8" font-weight="500">Implement stacks assembly</text>
  <text x="270" y="586" fill="#6b7280" font-size="7">l1x/crabitat · #22 · PR #25 · 2h ago</text>
  <rect x="270" y="594" width="48" height="16" rx="3" fill="#dcfce7" stroke="#16a34a" stroke-width="0.5"/>
  <text x="294" y="605" fill="#16a34a" font-size="7" text-anchor="middle">plan ✓</text>
  <text x="322" y="605" fill="#e2e5ed" font-size="8">→</text>
  <rect x="332" y="594" width="56" height="16" rx="3" fill="#dcfce7" stroke="#16a34a" stroke-width="0.5"/>
  <text x="360" y="605" fill="#16a34a" font-size="7" text-anchor="middle">develop ✓</text>
  <text x="392" y="605" fill="#e2e5ed" font-size="8">→</text>
  <rect x="402" y="594" width="48" height="16" rx="3" fill="#dcfce7" stroke="#16a34a" stroke-width="0.5"/>
  <text x="426" y="605" fill="#16a34a" font-size="7" text-anchor="middle">review ✓</text>
  <text x="454" y="605" fill="#e2e5ed" font-size="8">→</text>
  <rect x="464" y="594" width="64" height="16" rx="3" fill="#dcfce7" stroke="#16a34a" stroke-width="0.5"/>
  <text x="496" y="605" fill="#16a34a" font-size="7" text-anchor="middle">merge ✓</text>
  <!-- Mission 3: failed -->
  <rect x="262" y="626" width="486" height="56" rx="4" fill="#ffffff" filter="url(#s1)"/>
  <rect x="270" y="634" width="36" height="14" rx="3" fill="#fee2e2"/>
  <text x="288" y="644" fill="#dc2626" font-size="7" text-anchor="middle">failed</text>
  <text x="312" y="644" fill="#1a1d26" font-size="8" font-weight="500">Fix auth token refresh</text>
  <text x="270" y="660" fill="#6b7280" font-size="7">l1x/dotfiles · #14 · 1h ago</text>
  <rect x="270" y="668" width="48" height="12" rx="3" fill="#dcfce7" stroke="#16a34a" stroke-width="0.5"/>
  <text x="294" y="677" fill="#16a34a" font-size="6" text-anchor="middle">plan ✓</text>
  <text x="322" y="677" fill="#e2e5ed" font-size="7">→</text>
  <rect x="332" y="668" width="56" height="12" rx="3" fill="#fee2e2" stroke="#dc2626" stroke-width="0.5"/>
  <text x="360" y="677" fill="#dc2626" font-size="6" text-anchor="middle">develop ✗</text>
  <!-- Mission 4: queued -->
  <rect x="262" y="688" width="486" height="40" rx="4" fill="#ffffff" filter="url(#s1)"/>
  <rect x="270" y="696" width="40" height="14" rx="3" fill="#f3f4f6"/>
  <text x="290" y="706" fill="#6b7280" font-size="7" text-anchor="middle">queued</text>
  <text x="316" y="706" fill="#1a1d26" font-size="8" font-weight="500">Deduplicate row-mapping boilerplate</text>
  <text x="270" y="722" fill="#6b7280" font-size="7">l1x/crabitat · #29 · Queue #2 · 5m ago</text>
  <!-- Mission 5: queued -->
  <rect x="262" y="734" width="486" height="40" rx="4" fill="#ffffff" filter="url(#s1)"/>
  <rect x="270" y="742" width="40" height="14" rx="3" fill="#f3f4f6"/>
  <text x="290" y="752" fill="#6b7280" font-size="7" text-anchor="middle">queued</text>
  <text x="316" y="752" fill="#1a1d26" font-size="8" font-weight="500">Clean up dead code</text>
  <text x="270" y="768" fill="#6b7280" font-size="7">l1x/crabitat · #31 · Queue #3 · 3m ago</text>

  <!-- ===== SCREEN 5: WORKFLOWS (x=780 y=424) ===== -->
  <rect x="780" y="424" width="800" height="380" rx="8" fill="#f5f6fa" stroke="#e2e5ed"/>
  <text x="1180" y="444" fill="#5b6abf" font-size="10" font-weight="600" text-anchor="middle">WORKFLOWS</text>
  <rect x="780" y="424" width="90" height="380" rx="8" fill="#ffffff"/>
  <line x1="870" y1="424" x2="870" y2="804" stroke="#e2e5ed"/>
  <rect x="788" y="432" width="16" height="16" rx="4" fill="#5b6abf"/>
  <rect x="788" y="456" width="74" height="16" rx="3" fill="#eef0ff"/>
  <text x="796" y="467" fill="#5b6abf" font-size="8" font-weight="600">Workflows</text>
  <rect x="870" y="424" width="710" height="24" fill="#ffffff"/>
  <line x1="870" y1="448" x2="1580" y2="448" stroke="#e2e5ed"/>
  <text x="882" y="441" fill="#1a1d26" font-size="11" font-weight="700">Workflows</text>
  <rect x="1542" y="430" width="20" height="20" rx="4" fill="#f3f4f6" stroke="#e2e5ed"/>
  <text x="1552" y="444" fill="#6b7280" font-size="10" text-anchor="middle">⚙</text>
  <!-- Workflows section -->
  <rect x="882" y="456" width="686" height="16" rx="4" fill="#ffffff" filter="url(#s1)"/>
  <text x="890" y="467" fill="#1a1d26" font-size="8" font-weight="600">Workflows</text>
  <rect x="940" y="458" width="14" height="12" rx="6" fill="#5b6abf"/>
  <text x="947" y="467" fill="#fff" font-size="7" text-anchor="middle">8</text>
  <!-- WF 1 -->
  <rect x="882" y="478" width="686" height="56" rx="4" fill="#ffffff" filter="url(#s1)"/>
  <text x="892" y="494" fill="#1a1d26" font-size="9" font-weight="600">develop-feature</text>
  <rect x="990" y="484" width="20" height="12" rx="3" fill="#f3f4f6"/>
  <text x="1000" y="493" fill="#6b7280" font-size="7" text-anchor="middle">v1</text>
  <rect x="1014" y="484" width="32" height="12" rx="3" fill="#eef0ff"/>
  <text x="1030" y="493" fill="#5b6abf" font-size="7" text-anchor="middle">TOML</text>
  <rect x="1050" y="484" width="40" height="12" rx="3" fill="#f3f4f6"/>
  <text x="1070" y="493" fill="#6b7280" font-size="6" font-family="monospace" text-anchor="middle">a3f8c2d</text>
  <text x="892" y="508" fill="#6b7280" font-size="7">Plan, develop, review, and merge a feature</text>
  <rect x="892" y="516" width="40" height="12" rx="3" fill="#f3f4f6" stroke="#e2e5ed" stroke-width="0.5"/>
  <text x="912" y="525" fill="#1a1d26" font-size="6" text-anchor="middle">plan</text>
  <text x="936" y="525" fill="#e2e5ed" font-size="7">→</text>
  <rect x="944" y="516" width="48" height="12" rx="3" fill="#f3f4f6" stroke="#e2e5ed" stroke-width="0.5"/>
  <text x="968" y="525" fill="#1a1d26" font-size="6" text-anchor="middle">develop</text>
  <text x="996" y="525" fill="#e2e5ed" font-size="7">→</text>
  <rect x="1004" y="516" width="44" height="12" rx="3" fill="#f3f4f6" stroke="#e2e5ed" stroke-width="0.5"/>
  <text x="1026" y="525" fill="#1a1d26" font-size="6" text-anchor="middle">review</text>
  <text x="1052" y="525" fill="#e2e5ed" font-size="7">→</text>
  <rect x="1060" y="516" width="56" height="12" rx="3" fill="#f3f4f6" stroke="#e2e5ed" stroke-width="0.5" stroke-dasharray="2,1"/>
  <text x="1088" y="525" fill="#6b7280" font-size="6" text-anchor="middle">merge-wait</text>
  <!-- WF 2: assembled -->
  <rect x="882" y="540" width="686" height="44" rx="4" fill="#ffffff" filter="url(#s1)"/>
  <text x="892" y="558" fill="#1a1d26" font-size="9" font-weight="600">develop-feature/github-issue+mise+rust</text>
  <rect x="1196" y="548" width="20" height="12" rx="3" fill="#f3f4f6"/>
  <text x="1206" y="557" fill="#6b7280" font-size="7" text-anchor="middle">v1</text>
  <rect x="1220" y="548" width="56" height="12" rx="3" fill="#dcfce7"/>
  <text x="1248" y="557" fill="#16a34a" font-size="7" text-anchor="middle">ASSEMBLED</text>
  <text x="892" y="576" fill="#6b7280" font-size="7">Includes: rust.md, mise.md, github-issue.md</text>
  <!-- Prompt Browser -->
  <rect x="882" y="596" width="686" height="16" rx="4" fill="#ffffff" filter="url(#s1)"/>
  <text x="890" y="607" fill="#1a1d26" font-size="8" font-weight="600">Prompt Files</text>
  <rect x="956" y="598" width="16" height="12" rx="6" fill="#5b6abf"/>
  <text x="964" y="607" fill="#fff" font-size="7" text-anchor="middle">14</text>
  <!-- Two-column browser -->
  <rect x="882" y="616" width="686" height="180" rx="4" fill="#ffffff" filter="url(#s1)"/>
  <line x1="1060" y1="616" x2="1060" y2="796" stroke="#e2e5ed"/>
  <!-- File tree (left) -->
  <text x="892" y="634" fill="#6b7280" font-size="7" font-weight="600">PROMPTS/STACKS/</text>
  <rect x="892" y="640" width="156" height="16" rx="3" fill="#eef0ff"/>
  <text x="904" y="651" fill="#5b6abf" font-size="8">rust.md</text>
  <text x="904" y="667" fill="#1a1d26" font-size="8">mise.md</text>
  <text x="904" y="683" fill="#1a1d26" font-size="8">astro.md</text>
  <text x="892" y="700" fill="#6b7280" font-size="7" font-weight="600">PROMPTS/PM/</text>
  <text x="904" y="715" fill="#1a1d26" font-size="8">github-issue.md</text>
  <text x="892" y="732" fill="#6b7280" font-size="7" font-weight="600">PROMPTS/STEPS/</text>
  <text x="904" y="747" fill="#1a1d26" font-size="8">plan.md</text>
  <text x="904" y="763" fill="#1a1d26" font-size="8">develop.md</text>
  <text x="904" y="779" fill="#1a1d26" font-size="8">review.md</text>
  <!-- Preview (right) -->
  <text x="1072" y="634" fill="#6b7280" font-size="7">prompts/stacks/rust.md</text>
  <text x="1072" y="652" fill="#1a1d26" font-size="8" font-family="monospace"># Rust Stack Context</text>
  <text x="1072" y="668" fill="#1a1d26" font-size="8" font-family="monospace">## Build System</text>
  <text x="1072" y="684" fill="#1a1d26" font-size="8" font-family="monospace">- cargo build</text>
  <text x="1072" y="700" fill="#1a1d26" font-size="8" font-family="monospace">- cargo test</text>
  <text x="1072" y="716" fill="#1a1d26" font-size="8" font-family="monospace">- cargo clippy</text>
  <text x="1072" y="732" fill="#1a1d26" font-size="8" font-family="monospace">## Conventions</text>
  <text x="1072" y="748" fill="#1a1d26" font-size="8" font-family="monospace">- Edition 2024</text>
  <text x="1072" y="764" fill="#1a1d26" font-size="8" font-family="monospace">- anyhow for errors</text>
  <text x="1072" y="780" fill="#1a1d26" font-size="8" font-family="monospace">- tokio async runtime</text>
</svg>