<svg xmlns="http://www.w3.org/2000/svg" viewBox="0 0 1200 800" font-family="-apple-system, 'Helvetica Neue', sans-serif">
  <defs>
    <pattern id="hatch" patternUnits="userSpaceOnUse" width="6" height="6" patternTransform="rotate(45)">
      <line x1="0" y1="0" x2="0" y2="6" stroke="#1c1c1c" stroke-width="0.5"/>
    </pattern>
  </defs>

  <rect width="1200" height="800" fill="#111111"/>
  <rect width="1200" height="800" fill="url(#hatch)" opacity="0.5"/>

  <!-- Sidebar -->
  <rect x="0" y="0" width="220" height="800" fill="#0e0e0e"/>
  <line x1="220" y1="0" x2="220" y2="800" stroke="#222" stroke-width="1"/>

  <text x="28" y="44" fill="#ece5d8" font-size="18" font-weight="700" letter-spacing="-0.3">crabitat</text>
  <line x1="28" y1="60" x2="196" y2="60" stroke="#222" stroke-width="1"/>

  <text x="42" y="98" fill="#666" font-size="13">Repositories</text>
  <text x="196" y="98" fill="#444" font-size="11" text-anchor="end">3</text>

  <rect x="12" y="112" width="196" height="36" rx="6" fill="#1a1a1a"/>
  <circle cx="28" cy="130" r="3" fill="#c87a2a"/>
  <text x="42" y="134" fill="#ece5d8" font-size="13" font-weight="500">Issues</text>
  <text x="196" y="134" fill="#666" font-size="11" font-weight="500" text-anchor="end">12</text>

  <text x="42" y="170" fill="#666" font-size="13">Workflows</text>
  <text x="196" y="170" fill="#444" font-size="11" text-anchor="end">5</text>

  <text x="42" y="202" fill="#666" font-size="13">Missions</text>
  <text x="196" y="202" fill="#444" font-size="11" text-anchor="end">2</text>

  <!-- Page heading -->
  <text x="260" y="52" fill="#ece5d8" font-size="26" font-weight="700" letter-spacing="-0.5">Issues</text>
  <text x="260" y="74" fill="#777" font-size="13">Open GitHub issues from your onboarded repos</text>

  <!-- Filter bar -->
  <rect x="260" y="96" width="220" height="32" rx="4" fill="#181818" stroke="#262626" stroke-width="1"/>
  <text x="274" y="117" fill="#999" font-size="12">acme / web-platform</text>
  <text x="466" y="117" fill="#555" font-size="10">▼</text>

  <rect x="496" y="96" width="76" height="32" rx="4" fill="none" stroke="#262626" stroke-width="1"/>
  <text x="534" y="117" fill="#666" font-size="12" text-anchor="middle">Refresh</text>

  <text x="1140" y="117" fill="#555" font-size="12" text-anchor="end">5 open issues</text>

  <line x1="260" y1="148" x2="1164" y2="148" stroke="#222" stroke-width="1"/>

  <!-- Issue 1 -->
  <rect x="260" y="164" width="880" height="92" rx="8" fill="#181818" stroke="#262626" stroke-width="1"/>
  <circle cx="284" cy="192" r="4" fill="#3fb950"/>
  <text x="298" y="196" fill="#999" font-size="13" font-weight="500">#42</text>
  <text x="330" y="196" fill="#ece5d8" font-size="14" font-weight="500">Add dark mode support to dashboard</text>
  <rect x="298" y="206" width="76" height="18" rx="9" fill="none" stroke="#333" stroke-width="1"/>
  <text x="336" y="219" fill="#888" font-size="10" text-anchor="middle">enhancement</text>
  <rect x="382" y="206" width="24" height="18" rx="9" fill="none" stroke="#333" stroke-width="1"/>
  <text x="394" y="219" fill="#888" font-size="10" text-anchor="middle">UI</text>
  <text x="298" y="244" fill="#555" font-size="11">Add a dark/light mode toggle to the main dashboard. Should persist preference in localStorage...</text>
  <rect x="1044" y="184" width="72" height="28" rx="4" fill="none" stroke="#333" stroke-width="1"/>
  <text x="1080" y="203" fill="#aaa" font-size="11" font-weight="500" text-anchor="middle">Launch</text>

  <!-- Issue 2 -->
  <rect x="260" y="272" width="880" height="92" rx="8" fill="#181818" stroke="#262626" stroke-width="1"/>
  <circle cx="284" cy="300" r="4" fill="#3fb950"/>
  <text x="298" y="304" fill="#999" font-size="13" font-weight="500">#39</text>
  <text x="330" y="304" fill="#ece5d8" font-size="14" font-weight="500">Fix pagination on search results page</text>
  <rect x="298" y="314" width="30" height="18" rx="9" fill="none" stroke="#333" stroke-width="1"/>
  <text x="313" y="327" fill="#888" font-size="10" text-anchor="middle">bug</text>
  <text x="298" y="352" fill="#555" font-size="11">Search results show all items on a single page when there are more than 100 results...</text>
  <rect x="1044" y="292" width="72" height="28" rx="4" fill="none" stroke="#333" stroke-width="1"/>
  <text x="1080" y="311" fill="#aaa" font-size="11" font-weight="500" text-anchor="middle">Launch</text>

  <!-- Issue 3 -->
  <rect x="260" y="380" width="880" height="92" rx="8" fill="#181818" stroke="#262626" stroke-width="1"/>
  <circle cx="284" cy="408" r="4" fill="#3fb950"/>
  <text x="298" y="412" fill="#999" font-size="13" font-weight="500">#37</text>
  <text x="330" y="412" fill="#ece5d8" font-size="14" font-weight="500">Migrate auth to OAuth 2.0 PKCE flow</text>
  <rect x="298" y="422" width="76" height="18" rx="9" fill="none" stroke="#333" stroke-width="1"/>
  <text x="336" y="435" fill="#888" font-size="10" text-anchor="middle">enhancement</text>
  <rect x="382" y="422" width="52" height="18" rx="9" fill="none" stroke="#333" stroke-width="1"/>
  <text x="408" y="435" fill="#888" font-size="10" text-anchor="middle">security</text>
  <text x="298" y="460" fill="#555" font-size="11">Replace current session-based auth with OAuth 2.0 PKCE. Will allow SSO providers...</text>
  <rect x="1044" y="400" width="72" height="28" rx="4" fill="none" stroke="#333" stroke-width="1"/>
  <text x="1080" y="419" fill="#aaa" font-size="11" font-weight="500" text-anchor="middle">Launch</text>

  <!-- Issue 4 -->
  <rect x="260" y="488" width="880" height="92" rx="8" fill="#181818" stroke="#262626" stroke-width="1"/>
  <circle cx="284" cy="516" r="4" fill="#3fb950"/>
  <text x="298" y="520" fill="#999" font-size="13" font-weight="500">#35</text>
  <text x="330" y="520" fill="#ece5d8" font-size="14" font-weight="500">Add API rate limiting middleware</text>
  <rect x="298" y="530" width="76" height="18" rx="9" fill="none" stroke="#333" stroke-width="1"/>
  <text x="336" y="543" fill="#888" font-size="10" text-anchor="middle">enhancement</text>
  <text x="298" y="568" fill="#555" font-size="11">Implement token-bucket rate limiting as Axum middleware. Per-IP and per-API-key limits...</text>
  <rect x="1044" y="508" width="72" height="28" rx="4" fill="none" stroke="#333" stroke-width="1"/>
  <text x="1080" y="527" fill="#aaa" font-size="11" font-weight="500" text-anchor="middle">Launch</text>

  <!-- Issue 5 -->
  <rect x="260" y="596" width="880" height="92" rx="8" fill="#181818" stroke="#262626" stroke-width="1"/>
  <circle cx="284" cy="624" r="4" fill="#3fb950"/>
  <text x="298" y="628" fill="#999" font-size="13" font-weight="500">#33</text>
  <text x="330" y="628" fill="#ece5d8" font-size="14" font-weight="500">Update documentation for v2 API changes</text>
  <rect x="298" y="638" width="36" height="18" rx="9" fill="none" stroke="#333" stroke-width="1"/>
  <text x="316" y="651" fill="#888" font-size="10" text-anchor="middle">docs</text>
  <text x="298" y="676" fill="#555" font-size="11">The v2 API has several breaking changes that need to be reflected in the docs...</text>
  <rect x="1044" y="616" width="72" height="28" rx="4" fill="none" stroke="#333" stroke-width="1"/>
  <text x="1080" y="635" fill="#aaa" font-size="11" font-weight="500" text-anchor="middle">Launch</text>

  <!-- Footer -->
  <text x="1140" y="720" fill="#333" font-size="11" text-anchor="end">Cached 2 min ago · TTL 5 min</text>
</svg>