<svg xmlns="http://www.w3.org/2000/svg" viewBox="0 0 1200 800" font-family="-apple-system, 'Helvetica Neue', sans-serif">
  <defs>
    <pattern id="hatch" patternUnits="userSpaceOnUse" width="6" height="6" patternTransform="rotate(45)">
      <line x1="0" y1="0" x2="0" y2="6" stroke="#1c1c1c" stroke-width="0.5"/>
    </pattern>
  </defs>

  <rect width="1200" height="800" fill="#111111"/>
  <rect width="1200" height="800" fill="url(#hatch)" opacity="0.5"/>

  <!-- Sidebar -->
  <rect x="0" y="0" width="220" height="800" fill="#0e0e0e"/>
  <line x1="220" y1="0" x2="220" y2="800" stroke="#222" stroke-width="1"/>

  <text x="28" y="44" fill="#ece5d8" font-size="18" font-weight="700" letter-spacing="-0.3">crabitat</text>
  <line x1="28" y1="60" x2="196" y2="60" stroke="#222" stroke-width="1"/>

  <text x="42" y="98" fill="#666" font-size="13">Repositories</text>
  <text x="42" y="130" fill="#666" font-size="13">Issues</text>

  <rect x="12" y="144" width="196" height="36" rx="6" fill="#1a1a1a"/>
  <circle cx="28" cy="162" r="3" fill="#c87a2a"/>
  <text x="42" y="166" fill="#ece5d8" font-size="13" font-weight="500">Workflows</text>
  <text x="196" y="166" fill="#666" font-size="11" font-weight="500" text-anchor="end">3</text>

  <text x="42" y="202" fill="#666" font-size="13">Missions</text>

  <!-- Page heading -->
  <text x="260" y="52" fill="#ece5d8" font-size="26" font-weight="700" letter-spacing="-0.5">Workflows</text>
  <text x="260" y="74" fill="#777" font-size="13">Repo-scoped templates with flavors for any kind of work</text>

  <rect x="1036" y="32" width="128" height="34" rx="6" fill="none" stroke="#333" stroke-width="1"/>
  <text x="1100" y="54" fill="#aaa" font-size="12" font-weight="500" text-anchor="middle">+ New Workflow</text>

  <line x1="260" y1="96" x2="1164" y2="96" stroke="#222" stroke-width="1"/>

  <!-- Workflow 1 -->
  <rect x="260" y="116" width="880" height="188" rx="8" fill="#181818" stroke="#262626" stroke-width="1"/>

  <text x="284" y="148" fill="#ece5d8" font-size="16" font-weight="600">implement-feature</text>
  <text x="1116" y="148" fill="#555" font-size="11" text-anchor="end">acme / web-platform</text>
  <text x="284" y="168" fill="#777" font-size="12">End-to-end feature implementation with plan, code, review, and PR</text>

  <text x="284" y="198" fill="#555" font-size="10" font-weight="600" letter-spacing="0.8">FLAVORS</text>
  <rect x="284" y="208" width="44" height="22" rx="11" fill="none" stroke="#333" stroke-width="1"/>
  <text x="306" y="223" fill="#aaa" font-size="11" text-anchor="middle">rust</text>
  <rect x="338" y="208" width="48" height="22" rx="11" fill="none" stroke="#333" stroke-width="1"/>
  <text x="362" y="223" fill="#aaa" font-size="11" text-anchor="middle">astro</text>
  <rect x="396" y="210" width="60" height="18" rx="9" fill="none" stroke="#262626" stroke-width="1" stroke-dasharray="3,2"/>
  <text x="426" y="223" fill="#444" font-size="10" text-anchor="middle">+ flavor</text>

  <text x="284" y="258" fill="#555" font-size="10" font-weight="600" letter-spacing="0.8">STEPS</text>
  <circle cx="304" cy="282" r="12" fill="none" stroke="#333" stroke-width="1"/>
  <text x="304" y="286" fill="#888" font-size="10" font-weight="600" text-anchor="middle">1</text>
  <text x="304" y="304" fill="#666" font-size="10" text-anchor="middle">Plan</text>
  <line x1="316" y1="282" x2="366" y2="282" stroke="#262626" stroke-width="1" stroke-dasharray="3,2"/>
  <circle cx="378" cy="282" r="12" fill="none" stroke="#333" stroke-width="1"/>
  <text x="378" y="286" fill="#888" font-size="10" font-weight="600" text-anchor="middle">2</text>
  <text x="378" y="304" fill="#666" font-size="10" text-anchor="middle">Code</text>
  <line x1="390" y1="282" x2="440" y2="282" stroke="#262626" stroke-width="1" stroke-dasharray="3,2"/>
  <circle cx="452" cy="282" r="12" fill="none" stroke="#333" stroke-width="1"/>
  <text x="452" y="286" fill="#888" font-size="10" font-weight="600" text-anchor="middle">3</text>
  <text x="452" y="304" fill="#666" font-size="10" text-anchor="middle">Review</text>
  <line x1="464" y1="282" x2="514" y2="282" stroke="#262626" stroke-width="1" stroke-dasharray="3,2"/>
  <circle cx="526" cy="282" r="12" fill="none" stroke="#333" stroke-width="1"/>
  <text x="526" y="286" fill="#888" font-size="10" font-weight="600" text-anchor="middle">4</text>
  <text x="526" y="304" fill="#666" font-size="10" text-anchor="middle">PR</text>

  <!-- Workflow 2 -->
  <rect x="260" y="320" width="880" height="188" rx="8" fill="#181818" stroke="#262626" stroke-width="1"/>

  <text x="284" y="352" fill="#ece5d8" font-size="16" font-weight="600">bug-triage</text>
  <text x="1116" y="352" fill="#555" font-size="11" text-anchor="end">acme / web-platform</text>
  <text x="284" y="372" fill="#777" font-size="12">Investigate, reproduce, and classify bug reports</text>

  <text x="284" y="402" fill="#555" font-size="10" font-weight="600" letter-spacing="0.8">FLAVORS</text>
  <rect x="284" y="412" width="64" height="22" rx="11" fill="none" stroke="#333" stroke-width="1"/>
  <text x="316" y="427" fill="#aaa" font-size="11" text-anchor="middle">backend</text>
  <rect x="358" y="412" width="66" height="22" rx="11" fill="none" stroke="#333" stroke-width="1"/>
  <text x="391" y="427" fill="#aaa" font-size="11" text-anchor="middle">frontend</text>
  <rect x="434" y="414" width="60" height="18" rx="9" fill="none" stroke="#262626" stroke-width="1" stroke-dasharray="3,2"/>
  <text x="464" y="427" fill="#444" font-size="10" text-anchor="middle">+ flavor</text>

  <text x="284" y="462" fill="#555" font-size="10" font-weight="600" letter-spacing="0.8">STEPS</text>
  <circle cx="304" cy="486" r="12" fill="none" stroke="#333" stroke-width="1"/>
  <text x="304" y="490" fill="#888" font-size="10" font-weight="600" text-anchor="middle">1</text>
  <text x="304" y="508" fill="#666" font-size="10" text-anchor="middle">Reproduce</text>
  <line x1="316" y1="486" x2="366" y2="486" stroke="#262626" stroke-width="1" stroke-dasharray="3,2"/>
  <circle cx="378" cy="486" r="12" fill="none" stroke="#333" stroke-width="1"/>
  <text x="378" y="490" fill="#888" font-size="10" font-weight="600" text-anchor="middle">2</text>
  <text x="378" y="508" fill="#666" font-size="10" text-anchor="middle">Classify</text>
  <line x1="390" y1="486" x2="440" y2="486" stroke="#262626" stroke-width="1" stroke-dasharray="3,2"/>
  <circle cx="452" cy="486" r="12" fill="none" stroke="#333" stroke-width="1"/>
  <text x="452" y="490" fill="#888" font-size="10" font-weight="600" text-anchor="middle">3</text>
  <text x="452" y="508" fill="#666" font-size="10" text-anchor="middle">Report</text>

  <!-- Workflow 3 -->
  <rect x="260" y="524" width="880" height="188" rx="8" fill="#181818" stroke="#262626" stroke-width="1"/>

  <text x="284" y="556" fill="#ece5d8" font-size="16" font-weight="600">project-management</text>
  <text x="1116" y="556" fill="#555" font-size="11" text-anchor="end">acme / api-gateway</text>
  <text x="284" y="576" fill="#777" font-size="12">Sprint planning and task breakdown from issues</text>

  <text x="284" y="606" fill="#555" font-size="10" font-weight="600" letter-spacing="0.8">FLAVORS</text>
  <rect x="284" y="616" width="56" height="22" rx="11" fill="none" stroke="#333" stroke-width="1"/>
  <text x="312" y="631" fill="#aaa" font-size="11" text-anchor="middle">default</text>
  <rect x="350" y="618" width="60" height="18" rx="9" fill="none" stroke="#262626" stroke-width="1" stroke-dasharray="3,2"/>
  <text x="380" y="631" fill="#444" font-size="10" text-anchor="middle">+ flavor</text>

  <text x="284" y="666" fill="#555" font-size="10" font-weight="600" letter-spacing="0.8">STEPS</text>
  <circle cx="304" cy="690" r="12" fill="none" stroke="#333" stroke-width="1"/>
  <text x="304" y="694" fill="#888" font-size="10" font-weight="600" text-anchor="middle">1</text>
  <text x="304" y="712" fill="#666" font-size="10" text-anchor="middle">Analyze</text>
  <line x1="316" y1="690" x2="366" y2="690" stroke="#262626" stroke-width="1" stroke-dasharray="3,2"/>
  <circle cx="378" cy="690" r="12" fill="none" stroke="#333" stroke-width="1"/>
  <text x="378" y="694" fill="#888" font-size="10" font-weight="600" text-anchor="middle">2</text>
  <text x="378" y="712" fill="#666" font-size="10" text-anchor="middle">Break down</text>
  <line x1="390" y1="690" x2="440" y2="690" stroke="#262626" stroke-width="1" stroke-dasharray="3,2"/>
  <circle cx="452" cy="690" r="12" fill="none" stroke="#333" stroke-width="1"/>
  <text x="452" y="694" fill="#888" font-size="10" font-weight="600" text-anchor="middle">3</text>
  <text x="452" y="712" fill="#666" font-size="10" text-anchor="middle">Prioritize</text>
</svg>