<svg xmlns="http://www.w3.org/2000/svg" viewBox="0 0 1200 800" font-family="-apple-system, 'Helvetica Neue', sans-serif">
  <defs>
    <pattern id="hatch" patternUnits="userSpaceOnUse" width="6" height="6" patternTransform="rotate(45)">
      <line x1="0" y1="0" x2="0" y2="6" stroke="#1c1c1c" stroke-width="0.5"/>
    </pattern>
  </defs>

  <rect width="1200" height="800" fill="#111111"/>
  <rect width="1200" height="800" fill="url(#hatch)" opacity="0.5"/>

  <!-- Sidebar -->
  <rect x="0" y="0" width="220" height="800" fill="#0e0e0e"/>
  <line x1="220" y1="0" x2="220" y2="800" stroke="#222" stroke-width="1"/>

  <text x="28" y="44" fill="#ece5d8" font-size="18" font-weight="700" letter-spacing="-0.3">crabitat</text>
  <line x1="28" y1="60" x2="196" y2="60" stroke="#222" stroke-width="1"/>

  <text x="42" y="98" fill="#666" font-size="13">Repositories</text>
  <text x="42" y="130" fill="#666" font-size="13">Issues</text>
  <text x="42" y="162" fill="#666" font-size="13">Workflows</text>

  <rect x="12" y="176" width="196" height="36" rx="6" fill="#1a1a1a"/>
  <circle cx="28" cy="194" r="3" fill="#c87a2a"/>
  <text x="42" y="198" fill="#ece5d8" font-size="13" font-weight="500">Missions</text>
  <text x="196" y="198" fill="#666" font-size="11" font-weight="500" text-anchor="end">3</text>

  <!-- Page heading -->
  <text x="260" y="52" fill="#ece5d8" font-size="26" font-weight="700" letter-spacing="-0.5">Missions</text>
  <text x="260" y="74" fill="#777" font-size="13">Issue + workflow flavor producing tasks and runs</text>

  <line x1="260" y1="96" x2="1164" y2="96" stroke="#222" stroke-width="1"/>

  <!-- Mission 1: Running (expanded) -->
  <rect x="260" y="116" width="880" height="330" rx="8" fill="#181818" stroke="#262626" stroke-width="1"/>

  <!-- Header row -->
  <rect x="284" y="136" width="60" height="20" rx="10" fill="none" stroke="#555" stroke-width="1"/>
  <text x="314" y="150" fill="#aaa" font-size="10" font-weight="500" text-anchor="middle">running</text>

  <text x="356" y="150" fill="#999" font-size="13" font-weight="500">#42</text>
  <text x="386" y="150" fill="#ece5d8" font-size="15" font-weight="600">Add dark mode support to dashboard</text>

  <text x="1116" y="150" fill="#555" font-size="11" text-anchor="end">acme / web-platform</text>

  <!-- Flavor + timing -->
  <rect x="284" y="162" width="140" height="20" rx="10" fill="none" stroke="#333" stroke-width="1"/>
  <text x="354" y="176" fill="#aaa" font-size="10" text-anchor="middle">implement-feature / rust</text>
  <text x="1116" y="176" fill="#444" font-size="11" text-anchor="end">Started 12 min ago</text>

  <!-- Pipeline -->
  <text x="284" y="212" fill="#555" font-size="10" font-weight="600" letter-spacing="0.8">PIPELINE</text>

  <!-- Step 1: completed -->
  <circle cx="310" cy="242" r="14" fill="none" stroke="#3fb950" stroke-width="1.5"/>
  <text x="310" y="246" fill="#3fb950" font-size="11" font-weight="700" text-anchor="middle">✓</text>
  <text x="310" y="268" fill="#3fb950" font-size="10" text-anchor="middle">Plan</text>
  <line x1="324" y1="242" x2="390" y2="242" stroke="#3fb950" stroke-width="1"/>

  <!-- Step 2: running -->
  <circle cx="404" cy="242" r="14" fill="none" stroke="#aaa" stroke-width="1.5"/>
  <text x="404" y="247" fill="#aaa" font-size="12" font-weight="600" text-anchor="middle">▸</text>
  <text x="404" y="268" fill="#aaa" font-size="10" text-anchor="middle">Code</text>
  <line x1="418" y1="242" x2="484" y2="242" stroke="#262626" stroke-width="1" stroke-dasharray="3,2"/>

  <!-- Step 3: queued -->
  <circle cx="498" cy="242" r="14" fill="none" stroke="#262626" stroke-width="1.5"/>
  <text x="498" y="246" fill="#444" font-size="10" font-weight="600" text-anchor="middle">3</text>
  <text x="498" y="268" fill="#444" font-size="10" text-anchor="middle">Review</text>
  <line x1="512" y1="242" x2="578" y2="242" stroke="#262626" stroke-width="1" stroke-dasharray="3,2"/>

  <!-- Step 4: queued -->
  <circle cx="592" cy="242" r="14" fill="none" stroke="#262626" stroke-width="1.5"/>
  <text x="592" y="246" fill="#444" font-size="10" font-weight="600" text-anchor="middle">4</text>
  <text x="592" y="268" fill="#444" font-size="10" text-anchor="middle">PR</text>

  <!-- Runs -->
  <text x="284" y="304" fill="#555" font-size="10" font-weight="600" letter-spacing="0.8">RUNS</text>

  <rect x="284" y="316" width="832" height="30" rx="4" fill="#111"/>
  <rect x="296" y="322" width="66" height="18" rx="9" fill="none" stroke="#3fb950" stroke-width="0.75"/>
  <text x="329" y="335" fill="#3fb950" font-size="9" font-weight="500" text-anchor="middle">completed</text>
  <text x="374" y="335" fill="#888" font-size="11">Step 1: Plan</text>
  <text x="1104" y="335" fill="#444" font-size="10" text-anchor="end">2m 34s · 12,400 tokens</text>

  <rect x="284" y="352" width="832" height="30" rx="4" fill="#111"/>
  <rect x="296" y="358" width="54" height="18" rx="9" fill="none" stroke="#555" stroke-width="0.75"/>
  <text x="323" y="371" fill="#aaa" font-size="9" font-weight="500" text-anchor="middle">running</text>
  <text x="362" y="371" fill="#888" font-size="11">Step 2: Code</text>
  <text x="1104" y="371" fill="#444" font-size="10" text-anchor="end">8m 12s elapsed</text>

  <rect x="284" y="388" width="832" height="30" rx="4" fill="#111"/>
  <rect x="296" y="394" width="52" height="18" rx="9" fill="none" stroke="#333" stroke-width="0.75"/>
  <text x="322" y="407" fill="#555" font-size="9" font-weight="500" text-anchor="middle">queued</text>
  <text x="360" y="407" fill="#555" font-size="11">Step 3: Review</text>
  <text x="1104" y="407" fill="#333" font-size="10" text-anchor="end">—</text>

  <!-- Mission 2: Completed -->
  <rect x="260" y="466" width="880" height="88" rx="8" fill="#181818" stroke="#262626" stroke-width="1"/>

  <rect x="284" y="490" width="76" height="20" rx="10" fill="none" stroke="#3fb950" stroke-width="0.75"/>
  <text x="322" y="504" fill="#3fb950" font-size="10" font-weight="500" text-anchor="middle">completed</text>

  <text x="372" y="504" fill="#999" font-size="13" font-weight="500">#35</text>
  <text x="402" y="504" fill="#ece5d8" font-size="14" font-weight="500">Add API rate limiting middleware</text>

  <rect x="284" y="514" width="140" height="20" rx="10" fill="none" stroke="#333" stroke-width="1"/>
  <text x="354" y="528" fill="#aaa" font-size="10" text-anchor="middle">implement-feature / rust</text>

  <!-- Mini pipeline -->
  <circle cx="960" cy="502" r="7" fill="none" stroke="#3fb950" stroke-width="1"/>
  <text x="960" y="505" fill="#3fb950" font-size="7" font-weight="700" text-anchor="middle">✓</text>
  <line x1="967" y1="502" x2="987" y2="502" stroke="#3fb950" stroke-width="0.75"/>
  <circle cx="994" cy="502" r="7" fill="none" stroke="#3fb950" stroke-width="1"/>
  <text x="994" y="505" fill="#3fb950" font-size="7" font-weight="700" text-anchor="middle">✓</text>
  <line x1="1001" y1="502" x2="1021" y2="502" stroke="#3fb950" stroke-width="0.75"/>
  <circle cx="1028" cy="502" r="7" fill="none" stroke="#3fb950" stroke-width="1"/>
  <text x="1028" y="505" fill="#3fb950" font-size="7" font-weight="700" text-anchor="middle">✓</text>
  <line x1="1035" y1="502" x2="1055" y2="502" stroke="#3fb950" stroke-width="0.75"/>
  <circle cx="1062" cy="502" r="7" fill="none" stroke="#3fb950" stroke-width="1"/>
  <text x="1062" y="505" fill="#3fb950" font-size="7" font-weight="700" text-anchor="middle">✓</text>

  <text x="1116" y="536" fill="#444" font-size="10" text-anchor="end">45 min total</text>

  <!-- Mission 3: Failed -->
  <rect x="260" y="570" width="880" height="88" rx="8" fill="#181818" stroke="#262626" stroke-width="1"/>

  <rect x="284" y="594" width="48" height="20" rx="10" fill="none" stroke="#b33" stroke-width="0.75"/>
  <text x="308" y="608" fill="#c44" font-size="10" font-weight="500" text-anchor="middle">failed</text>

  <text x="344" y="608" fill="#999" font-size="13" font-weight="500">#37</text>
  <text x="374" y="608" fill="#ece5d8" font-size="14" font-weight="500">Migrate auth to OAuth 2.0 PKCE flow</text>

  <rect x="284" y="618" width="148" height="20" rx="10" fill="none" stroke="#333" stroke-width="1"/>
  <text x="358" y="632" fill="#aaa" font-size="10" text-anchor="middle">implement-feature / astro</text>

  <!-- Mini pipeline: failed at step 2 -->
  <circle cx="960" cy="606" r="7" fill="none" stroke="#3fb950" stroke-width="1"/>
  <text x="960" y="609" fill="#3fb950" font-size="7" font-weight="700" text-anchor="middle">✓</text>
  <line x1="967" y1="606" x2="987" y2="606" stroke="#3fb950" stroke-width="0.75"/>
  <circle cx="994" cy="606" r="7" fill="none" stroke="#c44" stroke-width="1"/>
  <text x="994" y="609" fill="#c44" font-size="7" font-weight="700" text-anchor="middle">✗</text>
  <line x1="1001" y1="606" x2="1021" y2="606" stroke="#262626" stroke-width="0.75" stroke-dasharray="2,2"/>
  <circle cx="1028" cy="606" r="7" fill="none" stroke="#262626" stroke-width="1"/>
  <line x1="1035" y1="606" x2="1055" y2="606" stroke="#262626" stroke-width="0.75" stroke-dasharray="2,2"/>
  <circle cx="1062" cy="606" r="7" fill="none" stroke="#262626" stroke-width="1"/>

  <text x="1116" y="640" fill="#444" font-size="10" text-anchor="end">Failed at Code step</text>
</svg>